<svg width="24" height="6" viewBox="0 0 24 6" fill="none" xmlns="http://www.w3.org/2000/svg">
<path d="M21.0797 5.95786H20.4423C20.3907 5.9438 20.3438 5.92036 20.2923 5.91099C18.9516 5.70474 17.8923 4.58911 17.8032 3.28132C17.7001 1.81882 18.5344 0.581323 19.8938 0.178198C20.0719 0.126635 20.2594 0.0891349 20.4422 0.0422599H21.0797C21.1219 0.0563224 21.1594 0.0797604 21.2063 0.0844479C22.4438 0.28601 23.386 1.17663 23.6532 2.39538C23.6719 2.48913 23.7 2.58288 23.7235 2.67663V3.31414C23.7094 3.35632 23.686 3.39851 23.6813 3.4407C23.4844 4.65945 22.6172 5.58755 21.4125 5.86882C21.2953 5.89695 21.1875 5.92976 21.0797 5.95788L21.0797 5.95786ZM3.06104 0.0422363L3.69858 0.0422599C3.75015 0.0563224 3.79702 0.0797604 3.84858 0.0844479C5.19858 0.295385 6.25327 1.4157 6.33765 2.73757C6.4314 4.19538 5.58765 5.4282 4.22358 5.82664C4.05012 5.8782 3.87202 5.9157 3.69856 5.95788H3.06106C3.01887 5.94382 2.98137 5.92038 2.93918 5.91101C1.72043 5.68601 0.92356 4.9782 0.543872 3.79695C0.49231 3.64226 0.464185 3.4782 0.421997 3.31882V2.68132C0.43606 2.63914 0.459497 2.59695 0.464185 2.55476C0.665747 1.33132 1.52825 0.407885 2.73293 0.126635C2.84543 0.0984866 2.95325 0.0703613 3.06104 0.0422363ZM11.7517 0.0422599H12.3892C12.4407 0.0563224 12.4876 0.0797599 12.5392 0.0891349C13.8845 0.300072 14.9673 1.46257 15.0236 2.77507C15.0892 4.25164 14.1986 5.5032 12.8251 5.85476C12.6798 5.89226 12.5345 5.92507 12.3892 5.95788H11.7517C11.7001 5.94382 11.6532 5.92038 11.6017 5.91101C10.2564 5.70476 9.17354 4.53757 9.11262 3.22507C9.04231 1.74851 9.93762 0.496947 11.3111 0.145385C11.4611 0.107885 11.6064 0.0750724 11.7517 0.0422599Z" fill="#0E0E0E"/>
</svg>
