<svg width="40" height="40" viewBox="0 0 40 40" fill="none" xmlns="http://www.w3.org/2000/svg">
<rect width="40" height="40" rx="20" fill="#FCFCFC"/>
<path d="M11.75 13C11.3358 13 11 13.3358 11 13.75V19C11 24.0012 13.9576 27.6757 19.7251 29.9478C19.9018 30.0174 20.0982 30.0174 20.2749 29.9478C26.0424 27.6757 29 24.0012 29 19V13.75C29 13.3358 28.6642 13 28.25 13C25.5866 13 22.992 12.0565 20.45 10.15C20.1833 9.95 19.8167 9.95 19.55 10.15C17.008 12.0565 14.4134 13 11.75 13ZM18.0739 23.5066C17.7839 22.7364 17.5875 21.7894 17.523 20.75H16.0702C16.2957 21.9389 17.0474 22.9416 18.0739 23.5066ZM19.5978 23.2684C19.3183 22.6536 19.0995 21.7798 19.0263 20.75H20.9737C20.9005 21.7798 20.6817 22.6536 20.4022 23.2684C20.2333 23.6399 20.0906 23.829 20 23.9232C19.9094 23.829 19.7667 23.6399 19.5978 23.2684ZM19.5978 16.7316C19.3183 17.3464 19.0995 18.2202 19.0263 19.25H20.9737C20.9005 18.2202 20.6817 17.3464 20.4022 16.7316C20.2333 16.3601 20.0906 16.171 20 16.0768C19.9094 16.171 19.7667 16.3601 19.5978 16.7316ZM21.9261 23.5066C22.2161 22.7364 22.4125 21.7894 22.4769 20.75H23.9298C23.7043 21.9389 22.9526 22.9416 21.9261 23.5066ZM22.4769 19.25H23.9298C23.7043 18.0611 22.9526 17.0584 21.9261 16.4934C22.2161 17.2636 22.4125 18.2106 22.4769 19.25ZM16.0702 19.25H17.523C17.5875 18.2106 17.7839 17.2636 18.0739 16.4934C17.0474 17.0584 16.2957 18.0611 16.0702 19.25ZM20 14.5C23.0376 14.5 25.5 16.9624 25.5 20C25.5 23.0376 23.0376 25.5 20 25.5C16.9624 25.5 14.5 23.0376 14.5 20C14.5 16.9624 16.9624 14.5 20 14.5Z" fill="#212121"/>
</svg>
