<svg width="40" height="40" viewBox="0 0 40 40" fill="none" xmlns="http://www.w3.org/2000/svg">
<rect width="40" height="40" rx="20" fill="#FCFCFC"/>
<path d="M13 17C13 13.134 16.134 10 20 10C23.866 10 27 13.134 27 17V22C27 23.1046 26.1046 24 25 24H23C22.4477 24 22 23.5523 22 23V19C22 18.4477 22.4477 18 23 18H25.5V17C25.5 13.9624 23.0376 11.5 20 11.5C16.9624 11.5 14.5 13.9624 14.5 17V18H17C17.5523 18 18 18.4477 18 19V23C18 23.5523 17.5523 24 17 24H15C14.8273 24 14.6598 23.9781 14.5 23.937L14.5 24.25C14.5 25.4409 15.4252 26.4156 16.596 26.4948L16.75 26.5L17.8778 26.5008C18.1864 25.6265 19.0201 25 20 25C21.2426 25 22.25 26.0074 22.25 27.25C22.25 28.4926 21.2426 29.5 20 29.5C19.0204 29.5 18.1871 28.874 17.8781 28.0003L16.75 28C14.7457 28 13.1087 26.4276 13.0052 24.4492L13 24.25V17Z" fill="#212121"/>
</svg>
