<svg width="40" height="40" viewBox="0 0 40 40" fill="none" xmlns="http://www.w3.org/2000/svg">
<rect width="40" height="40" rx="20" fill="#FCFCFC"/>
<path d="M22.2147 15.2165C22.2147 13.9864 21.2175 12.9891 19.9874 12.9891C18.7572 12.9891 17.76 13.9864 17.76 15.2165C17.76 16.4466 18.7572 17.4439 19.9874 17.4439C21.2175 17.4439 22.2147 16.4466 22.2147 15.2165ZM12.5156 22H15.5049V19.0142L15.513 18.8339C15.5395 18.5371 15.6309 18.2589 15.7728 18.0136L13.0156 18.0142L12.899 18.0209C12.4017 18.0787 12.0156 18.5014 12.0156 19.0142V21.5C12.0156 21.7761 12.2395 22 12.5156 22ZM27.99 21.5C27.99 21.7761 27.7661 22 27.49 22H24.4735V19.0142L24.468 18.8649C24.4453 18.5564 24.3525 18.2674 24.2056 18.0136L26.99 18.0142C27.5028 18.0142 27.9255 18.4002 27.9832 18.8976L27.99 19.0142V21.5ZM23.4668 18.8976C23.409 18.4002 22.9863 18.0142 22.4735 18.0142H17.5049L17.3883 18.0209C16.891 18.0787 16.5049 18.5014 16.5049 19.0142V22H23.4735V19.0142L23.4668 18.8976ZM24.9745 13.6173C26.0312 13.6173 26.8878 14.4739 26.8878 15.5306C26.8878 16.5872 26.0312 17.4439 24.9745 17.4439C23.9178 17.4439 23.0612 16.5872 23.0612 15.5306C23.0612 14.4739 23.9178 13.6173 24.9745 13.6173ZM16.9292 15.5306C16.9292 14.4739 16.0726 13.6173 15.016 13.6173C13.9593 13.6173 13.1027 14.4739 13.1027 15.5306C13.1027 16.5872 13.9593 17.4439 15.016 17.4439C16.0726 17.4439 16.9292 16.5872 16.9292 15.5306ZM12.5 23C12.2239 23 12 23.2239 12 23.5V24.5C12 25.8807 13.1193 27 14.5 27H25.5C26.8807 27 28 25.8807 28 24.5V23.5C28 23.2239 27.7761 23 27.5 23H12.5Z" fill="#212121"/>
</svg>
