<svg width="24" height="24" viewBox="0 0 24 24" fill="none" xmlns="http://www.w3.org/2000/svg">
<path d="M22.7954 10.9022L13.0979 1.20468C12.9537 1.06051 12.7826 0.946149 12.5942 0.868124C12.4058 0.790098 12.2039 0.749939 12.0001 0.749939C11.7962 0.749939 11.5943 0.790098 11.4059 0.868124C11.2176 0.946149 11.0464 1.06051 10.9022 1.20468L1.20475 10.9022C1.06057 11.0464 0.94621 11.2175 0.868185 11.4059C0.790159 11.5942 0.75 11.7961 0.75 12C0.75 12.2039 0.790159 12.4058 0.868185 12.5941C0.94621 12.7825 1.06057 12.9536 1.20475 13.0978L10.9022 22.7953C11.0464 22.9395 11.2176 23.0538 11.4059 23.1319C11.5943 23.2099 11.7962 23.2501 12.0001 23.2501C12.2039 23.2501 12.4058 23.2099 12.5942 23.1319C12.7826 23.0538 12.9537 22.9395 13.0979 22.7953L22.7954 13.0978C22.9395 12.9536 23.0539 12.7825 23.1319 12.5941C23.21 12.4058 23.2501 12.2039 23.2501 12C23.2501 11.7961 23.21 11.5942 23.1319 11.4059C23.0539 11.2175 22.9395 11.0464 22.7954 10.9022ZM16.2807 11.7806L14.0307 14.0306C13.89 14.1714 13.6991 14.2504 13.5001 14.2504C13.301 14.2504 13.1102 14.1714 12.9694 14.0306C12.8287 13.8899 12.7496 13.699 12.7496 13.5C12.7496 13.301 12.8287 13.1101 12.9694 12.9694L13.9397 12H10.5001C10.1022 12 9.7207 12.158 9.4394 12.4393C9.15809 12.7206 9.00006 13.1022 9.00006 13.5V14.25C9.00006 14.4489 8.92104 14.6397 8.78039 14.7803C8.63974 14.921 8.44897 15 8.25006 15C8.05115 15 7.86038 14.921 7.71973 14.7803C7.57908 14.6397 7.50006 14.4489 7.50006 14.25V13.5C7.50006 12.7043 7.81613 11.9413 8.37874 11.3787C8.94135 10.8161 9.70441 10.5 10.5001 10.5H13.9397L12.9694 9.53062C12.8287 9.38989 12.7496 9.19902 12.7496 9C12.7496 8.80097 12.8287 8.6101 12.9694 8.46937C13.1102 8.32864 13.301 8.24958 13.5001 8.24958C13.6991 8.24958 13.89 8.32864 14.0307 8.46937L16.2807 10.7194C16.3504 10.789 16.4057 10.8717 16.4435 10.9628C16.4812 11.0538 16.5006 11.1514 16.5006 11.25C16.5006 11.3486 16.4812 11.4462 16.4435 11.5372C16.4057 11.6283 16.3504 11.711 16.2807 11.7806Z" fill="#0E0E0E"/>
</svg>
