<svg width="40" height="40" viewBox="0 0 40 40" fill="none" xmlns="http://www.w3.org/2000/svg">
<rect width="40" height="40" rx="20" fill="#FCFCFC"/>
<path d="M20.0967 10.105C19.8868 9.96501 19.6132 9.96501 19.4033 10.105C16.9806 11.7201 14.3604 12.7279 11.5366 13.1313C11.2287 13.1753 11 13.439 11 13.75V19.375C11 24.2392 13.8837 27.7884 19.5256 29.9583C19.6701 30.0139 19.8299 30.0139 19.9744 29.9583C25.6163 27.7884 28.5 24.2392 28.5 19.375V13.75C28.5 13.439 28.2713 13.1753 27.9634 13.1313C25.1396 12.7279 22.5194 11.7201 20.0967 10.105ZM19.75 19.3744C18.3693 19.3744 17.25 18.2551 17.25 16.8744C17.25 15.4937 18.3693 14.3744 19.75 14.3744C21.1307 14.3744 22.25 15.4937 22.25 16.8744C22.25 18.2551 21.1307 19.3744 19.75 19.3744ZM19.75 25.6244C16.625 25.6244 15.375 24.0618 15.375 22.4994C15.375 21.4639 16.2145 20.6244 17.25 20.6244H22.25C23.2855 20.6244 24.125 21.4639 24.125 22.4994C24.125 24.0559 22.875 25.6244 19.75 25.6244Z" fill="#212121"/>
</svg>
