<svg width="24" height="24" viewBox="0 0 24 24" fill="none" xmlns="http://www.w3.org/2000/svg">
<path d="M6 7.5C6 7.22386 6.22386 7 6.5 7H17.5C17.7761 7 18 7.22386 18 7.5C18 7.77614 17.7761 8 17.5 8H6.5C6.22386 8 6 7.77614 6 7.5ZM6 11.5C6 11.2239 6.22386 11 6.5 11H17.5C17.7761 11 18 11.2239 18 11.5C18 11.7761 17.7761 12 17.5 12H6.5C6.22386 12 6 11.7761 6 11.5ZM6 15.5C6 15.2239 6.22386 15 6.5 15H17.5C17.7761 15 18 15.2239 18 15.5C18 15.7761 17.7761 16 17.5 16H6.5C6.22386 16 6 15.7761 6 15.5Z" fill="#8A8A8A"/>
</svg>
