<svg width="24" height="24" viewBox="0 0 24 24" fill="none" xmlns="http://www.w3.org/2000/svg">
<path d="M15.5 15C15.2239 15 15 15.2239 15 15.5C15 15.7761 15.2239 16 15.5 16H17.5C17.7761 16 18 15.7761 18 15.5C18 15.2239 17.7761 15 17.5 15H15.5ZM4 8.75C4 7.23122 5.23122 6 6.75 6H17.25C18.7688 6 20 7.23122 20 8.75V15.25C20 16.7688 18.7688 18 17.25 18H6.75C5.23122 18 4 16.7688 4 15.25V8.75ZM6.75 7C5.7835 7 5 7.7835 5 8.75V10H19V8.75C19 7.7835 18.2165 7 17.25 7H6.75ZM19 11H5V15.25C5 16.2165 5.7835 17 6.75 17H17.25C18.2165 17 19 16.2165 19 15.25V11Z" fill="#8A8A8A"/>
</svg>
