<svg width="24" height="24" viewBox="0 0 24 24" fill="none" xmlns="http://www.w3.org/2000/svg">
<path d="M14 4C15.3807 4 16.5 5.11929 16.5 6.5C16.5 7.06324 16.3137 7.58297 15.9995 8.00097L18 8C18.5523 8 19 8.44772 19 9V12C19 12.5523 18.5523 13 18 13V17.5C18 18.8807 16.8807 20 15.5 20H8.5C7.11929 20 6 18.8807 6 17.5V13C5.44772 13 5 12.5523 5 12V9C5 8.44772 5.44772 8 6 8L8.00055 8.00097C7.68626 7.58297 7.5 7.06324 7.5 6.5C7.5 5.11929 8.61929 4 10 4C10.8184 4 11.5449 4.39323 12.001 5.00106C12.4551 4.39323 13.1816 4 14 4ZM11.5 13H7V17.5C7 18.3284 7.67157 19 8.5 19H11.5V13ZM17 13H12.5V19H15.5C16.3284 19 17 18.3284 17 17.5V13ZM11.5 9H6V12H11.5V9ZM18 9H12.5V12H18V9ZM14 5C13.1716 5 12.5 5.67157 12.5 6.5V8H14C14.8284 8 15.5 7.32843 15.5 6.5C15.5 5.67157 14.8284 5 14 5ZM10 5C9.17157 5 8.5 5.67157 8.5 6.5C8.5 7.2797 9.09489 7.92045 9.85554 7.99313L10 8H11.5V6.5L11.4931 6.35554C11.4204 5.59489 10.7797 5 10 5Z" fill="#0E0E0E"/>
</svg>
