<svg width="48" height="48" viewBox="0 0 48 48" fill="none" xmlns="http://www.w3.org/2000/svg">
<rect width="48" height="48" rx="24" fill="#F5F5F5"/>
<path d="M28.7568 21.3029C29.0621 21.023 29.0828 20.5486 28.8029 20.2432C28.523 19.9379 28.0485 19.9172 27.7432 20.1971L22.2726 25.2119L20.2803 23.2197C19.9874 22.9268 19.5126 22.9268 19.2197 23.2197C18.9268 23.5126 18.9268 23.9874 19.2197 24.2803L21.7197 26.7803C22.0036 27.0643 22.4608 27.0742 22.7568 26.8029L28.7568 21.3029ZM32.25 17C29.5866 17 26.992 16.0565 24.45 14.15C24.1833 13.95 23.8167 13.95 23.55 14.15C21.008 16.0565 18.4134 17 15.75 17C15.3358 17 15 17.3358 15 17.75V23C15 28.0012 17.9576 31.6757 23.7251 33.9478C23.9018 34.0174 24.0982 34.0174 24.2749 33.9478C30.0424 31.6757 33 28.0012 33 23V17.75C33 17.3358 32.6642 17 32.25 17ZM16.5 18.4779C19.0773 18.3258 21.5808 17.3883 24 15.6778C26.4192 17.3883 28.9227 18.3258 31.5 18.4779V23C31.5 27.2556 29.0466 30.3789 24 32.4419C18.9534 30.3789 16.5 27.2556 16.5 23V18.4779Z" fill="#111111"/>
</svg>
