<svg width="64" height="63" viewBox="0 0 64 63" fill="none" xmlns="http://www.w3.org/2000/svg">
<path d="M31.7884 2.13037C21.8157 2.13037 13.7468 10.188 13.7468 20.1452V29.0391H19.8492V20.5373C19.8492 13.9349 25.198 8.57877 31.7884 8.57877C38.3792 8.57877 43.7279 14.0844 43.7279 20.5372V29.0391H49.8303V20.1453C49.8303 10.4423 41.744 2.13037 31.7885 2.13037H31.7884ZM10.9784 31.3386C9.18065 34.1474 8.16748 37.3861 8.16748 40.7862C8.16748 51.6583 18.6228 60.6582 31.7888 60.6582C44.9546 60.6582 55.4099 51.6583 55.4099 40.7862C55.4099 37.3858 54.3935 34.1478 52.5952 31.3386H10.9781H10.9784ZM31.754 34.284C34.5028 34.284 36.7835 36.4915 36.7835 39.2403C36.7835 41.3021 35.4792 43.0831 33.692 43.8393L37.718 55.9134H25.8593L29.8122 43.8394C28.0248 43.0833 26.7936 41.3022 26.7936 39.2407C26.7936 36.4921 29.005 34.2844 31.7538 34.2844L31.754 34.284Z" fill="#0E0E0E"/>
</svg>
