<svg width="48" height="48" viewBox="0 0 48 48" fill="none" xmlns="http://www.w3.org/2000/svg">
<rect width="48" height="48" rx="24" fill="#F5F5F5"/>
<path d="M20.2544 18.9999C21.2209 18.9999 22.0044 19.7834 22.0044 20.7499V30.25C22.0044 31.2165 21.2209 32 20.2544 32H15.75C14.7835 32 14 31.2165 14 30.25V20.7499C14 19.7834 14.7835 18.9999 15.75 18.9999H20.2544ZM20.2544 20.4999H15.75C15.6119 20.4999 15.5 20.6118 15.5 20.7499V30.25C15.5 30.3881 15.6119 30.5 15.75 30.5H20.2544C20.3925 30.5 20.5044 30.3881 20.5044 30.25V20.7499C20.5044 20.6118 20.3925 20.4999 20.2544 20.4999ZM18.2522 28C18.6664 28 19.0022 28.3358 19.0022 28.75C19.0022 29.1297 18.7201 29.4435 18.354 29.4932L18.2522 29.5H17.7522C17.338 29.5 17.0022 29.1642 17.0022 28.75C17.0022 28.3703 17.2844 28.0565 17.6504 28.0068L17.7522 28H18.2522ZM31.7494 16C32.9402 16 33.915 16.9252 33.9942 18.096L33.9994 18.25V26.75C33.9994 27.9409 33.0742 28.9156 31.9034 28.9948L31.7494 29H22.9991V27.5H31.7494C32.1291 27.5 32.4429 27.2178 32.4925 26.8518L32.4994 26.75V18.25C32.4994 17.8703 32.2172 17.5565 31.8511 17.5068L31.7494 17.5H20.2494C19.923 17.5 19.6452 17.7085 19.5422 17.9996L18.0131 18.0004C18.1313 16.9288 19.0021 16.0839 20.0854 16.0059L20.2494 16H31.7494ZM27.2494 25C27.6636 25 27.9994 25.3358 27.9994 25.75C27.9994 26.1642 27.6636 26.5 27.2494 26.5H24.7494C24.3352 26.5 23.9994 26.1642 23.9994 25.75C23.9994 25.3358 24.3352 25 24.7494 25H27.2494Z" fill="#111111"/>
</svg>
