<svg width="24" height="24" viewBox="0 0 24 24" fill="none" xmlns="http://www.w3.org/2000/svg">
<path d="M13.5 17C13.6326 17 13.7598 16.9473 13.8536 16.8536C13.9473 16.7598 14 16.6326 14 16.5V16.109C14.2551 16.3859 14.5641 16.6077 14.908 16.7609C15.252 16.9141 15.6235 16.9955 16 17C16.86 16.9287 17.6572 16.5213 18.2188 15.8661C18.7804 15.2109 19.0611 14.3608 19 13.5C19.0611 12.6392 18.7804 11.7891 18.2188 11.1339C17.6572 10.4787 16.86 10.0713 16 10C15.6235 10.0045 15.252 10.0859 14.908 10.2391C14.5641 10.3923 14.2551 10.6141 14 10.891V6C14 5.86739 13.9473 5.74021 13.8536 5.64645C13.7598 5.55268 13.6326 5.5 13.5 5.5C13.3674 5.5 13.2402 5.55268 13.1464 5.64645C13.0527 5.74021 13 5.86739 13 6V16.5C13 16.6326 13.0527 16.7598 13.1464 16.8536C13.2402 16.9473 13.3674 17 13.5 17ZM16 11C16.5939 11.0728 17.1357 11.3752 17.5095 11.8424C17.8832 12.3096 18.0593 12.9046 18 13.5C18.0593 14.0954 17.8832 14.6904 17.5095 15.1576C17.1357 15.6248 16.5939 15.9272 16 16C15.4061 15.9272 14.8643 15.6248 14.4905 15.1576C14.1168 14.6904 13.9407 14.0954 14 13.5C13.9407 12.9046 14.1168 12.3096 14.4905 11.8424C14.8643 11.3752 15.4061 11.0728 16 11ZM6.871 16.884C7.41876 16.9954 7.98459 16.9817 8.52634 16.8441C9.0681 16.7064 9.57182 16.4483 10 16.089V16.5C10 16.6326 10.0527 16.7598 10.1464 16.8536C10.2402 16.9473 10.3674 17 10.5 17C10.6326 17 10.7598 16.9473 10.8536 16.8536C10.9473 16.7598 11 16.6326 11 16.5V12.462C11.0505 11.9791 10.9561 11.4922 10.7289 11.0632C10.5016 10.6341 10.1518 10.2825 9.724 10.053C9.14128 9.77817 8.49931 9.65273 7.856 9.688C7.31 9.70105 6.7724 9.82524 6.276 10.053C6.15745 10.1124 6.06736 10.2165 6.02554 10.3423C5.98372 10.4682 5.9936 10.6054 6.053 10.724C6.11241 10.8425 6.21648 10.9326 6.34232 10.9745C6.46815 11.0163 6.60545 11.0064 6.724 10.947C7.09296 10.7838 7.49064 10.6954 7.894 10.687C8.36902 10.659 8.84364 10.7483 9.276 10.947C9.51352 11.0704 9.70909 11.2615 9.83797 11.4962C9.96684 11.7308 10.0232 11.9983 10 12.265C9.54548 12.1242 9.07519 12.0406 8.6 12.016C7.76806 11.9478 6.93608 12.1468 6.225 12.584C5.82951 12.8263 5.51414 13.1797 5.31826 13.6001C5.12239 14.0205 5.05467 14.4893 5.12358 14.948C5.19248 15.4067 5.39495 15.8349 5.70572 16.1792C6.01648 16.5235 6.42177 16.7686 6.871 16.884ZM6.777 13.417C7.30955 13.1 7.92887 12.96 8.546 13.017C9.04389 13.0422 9.53464 13.1462 10 13.325V14.789C9.65336 15.2014 9.20918 15.5207 8.7078 15.7179C8.20641 15.9151 7.66372 15.9838 7.129 15.918C6.86531 15.8528 6.62715 15.7102 6.44518 15.5086C6.2632 15.3069 6.14572 15.0554 6.10787 14.7864C6.07001 14.5175 6.1135 14.2433 6.23275 13.9993C6.352 13.7552 6.54154 13.5524 6.777 13.417ZM21 18V18.5C21 18.8978 20.842 19.2794 20.5607 19.5607C20.2794 19.842 19.8978 20 19.5 20H4.5C4.10218 20 3.72064 19.842 3.43934 19.5607C3.15803 19.2794 3 18.8978 3 18.5V18C3 17.8674 3.05268 17.7402 3.14645 17.6464C3.24021 17.5527 3.36739 17.5 3.5 17.5C3.63261 17.5 3.75979 17.5527 3.85355 17.6464C3.94732 17.7402 4 17.8674 4 18V18.5C4 18.6326 4.05268 18.7598 4.14645 18.8536C4.24021 18.9473 4.36739 19 4.5 19H19.5C19.6326 19 19.7598 18.9473 19.8536 18.8536C19.9473 18.7598 20 18.6326 20 18.5V18C20 17.8674 20.0527 17.7402 20.1464 17.6464C20.2402 17.5527 20.3674 17.5 20.5 17.5C20.6326 17.5 20.7598 17.5527 20.8536 17.6464C20.9473 17.7402 21 17.8674 21 18Z" fill="#111111"/>
</svg>
