<svg width="48" height="48" viewBox="0 0 48 48" fill="none" xmlns="http://www.w3.org/2000/svg">
<rect width="48" height="48" rx="24" fill="#F5F5F5"/>
<path d="M15 17.75C15 17.3358 15.3358 17 15.75 17C18.4134 17 21.008 16.0565 23.55 14.15C23.8167 13.95 24.1833 13.95 24.45 14.15C26.992 16.0565 29.5866 17 32.25 17C32.6642 17 33 17.3358 33 17.75V23C33 28.0012 30.0424 31.6757 24.2749 33.9478C24.0982 34.0174 23.9018 34.0174 23.7251 33.9478C17.9576 31.6757 15 28.0012 15 23V17.75ZM16.5 18.4779V23C16.5 27.2556 18.9534 30.3789 24 32.4419C29.0466 30.3789 31.5 27.2556 31.5 23V18.4779C28.9227 18.3258 26.4192 17.3883 24 15.6778C21.5808 17.3883 19.0773 18.3258 16.5 18.4779ZM25 28C25 28.5523 24.5523 29 24 29C23.4477 29 23 28.5523 23 28C23 27.4477 23.4477 27 24 27C24.5523 27 25 27.4477 25 28ZM22.75 21.75C22.75 21.0596 23.3096 20.5 24 20.5C24.6904 20.5 25.25 21.0596 25.25 21.75C25.25 22.197 25.002 22.4869 24.4702 23.0177L24.4226 23.0651C23.9521 23.5333 23.25 24.232 23.25 25.35C23.25 25.7642 23.5858 26.1 24 26.1C24.4142 26.1 24.75 25.7642 24.75 25.35C24.75 24.9006 24.9988 24.6093 25.5298 24.0794L25.5789 24.0304C26.0487 23.5631 26.75 22.8653 26.75 21.75C26.75 20.2312 25.5188 19 24 19C22.4812 19 21.25 20.2312 21.25 21.75C21.25 22.1642 21.5858 22.5 22 22.5C22.4142 22.5 22.75 22.1642 22.75 21.75Z" fill="#111111"/>
</svg>
