<svg width="48" height="48" viewBox="0 0 48 48" fill="none" xmlns="http://www.w3.org/2000/svg">
<rect width="48" height="48" rx="24" fill="#F5F5F5"/>
<path d="M24 23.4995C25.1046 23.4995 26 22.6041 26 21.4995C26 20.3949 25.1046 19.4995 24 19.4995C22.8954 19.4995 22 20.3949 22 21.4995C22 22.6041 22.8954 23.4995 24 23.4995ZM24 28.4995C26.5 28.4995 27.5 27.2447 27.5 25.9995C27.5 25.1711 26.8284 24.4995 26 24.4995H22C21.1716 24.4995 20.5 25.1711 20.5 25.9995C20.5 27.2494 21.5 28.4995 24 28.4995ZM24.2774 16.084C24.1094 15.972 23.8906 15.972 23.7226 16.084C21.7845 17.3761 19.6883 18.1823 17.4293 18.505C17.183 18.5402 17 18.7512 17 19V23.5C17 27.3913 19.307 30.2307 23.8205 31.9667C23.936 32.0111 24.064 32.0111 24.1795 31.9667C28.693 30.2307 31 27.3913 31 23.5V19C31 18.7512 30.817 18.5402 30.5707 18.505C28.3117 18.1823 26.2155 17.3761 24.2774 16.084ZM18 19.4279C19.9854 19.0905 21.8527 18.3961 23.5991 17.3458L24 17.0971L24.4009 17.3458C26.1473 18.3961 28.0146 19.0905 30 19.4279V23.5C30 26.892 28.0321 29.3634 24 30.9632C19.9679 29.3634 18 26.892 18 23.5V19.4279Z" fill="#111111"/>
</svg>
