<svg width="48" height="48" viewBox="0 0 48 48" fill="none" xmlns="http://www.w3.org/2000/svg">
<rect width="48" height="48" rx="24" fill="#F5F5F5"/>
<path d="M15 17.75C15 17.3358 15.3358 17 15.75 17C18.4134 17 21.008 16.0565 23.55 14.15C23.8167 13.95 24.1833 13.95 24.45 14.15C26.992 16.0565 29.5866 17 32.25 17C32.6642 17 33 17.3358 33 17.75V23C33 23.3381 32.9865 23.6701 32.9595 23.9961C32.5062 23.7106 32.0152 23.4795 31.4955 23.3121C31.4985 23.2087 31.5 23.1047 31.5 23V18.4779C28.9227 18.3258 26.4192 17.3883 24 15.6778C21.5808 17.3883 19.0773 18.3258 16.5 18.4779V23C16.5 27.1488 18.8318 30.2214 23.625 32.2846C23.8882 32.839 24.2276 33.3503 24.6297 33.8048C24.5126 33.8531 24.3944 33.9007 24.2749 33.9478C24.0982 34.0174 23.9018 34.0174 23.7251 33.9478C17.9576 31.6757 15 28.0012 15 23V17.75ZM35 29.5C35 32.5376 32.5376 35 29.5 35C26.4624 35 24 32.5376 24 29.5C24 26.4624 26.4624 24 29.5 24C32.5376 24 35 26.4624 35 29.5ZM32.8536 27.1464C32.6583 26.9512 32.3417 26.9512 32.1464 27.1464L28.5 30.7929L26.8536 29.1464C26.6583 28.9512 26.3417 28.9512 26.1464 29.1464C25.9512 29.3417 25.9512 29.6583 26.1464 29.8536L28.1464 31.8536C28.3417 32.0488 28.6583 32.0488 28.8536 31.8536L32.8536 27.8536C33.0488 27.6583 33.0488 27.3417 32.8536 27.1464Z" fill="#111111"/>
</svg>
