<svg width="72" height="72" viewBox="0 0 72 72" fill="none" xmlns="http://www.w3.org/2000/svg">
<g filter="url(#filter0_d_1277_768)">
<rect x="4" y="4" width="64" height="64" rx="32" fill="#FCFCFC" shape-rendering="crispEdges"/>
<rect x="4.5" y="4.5" width="63" height="63" rx="31.5" stroke="#DADADA" shape-rendering="crispEdges"/>
<g clip-path="url(#clip0_1277_768)">
<path d="M51.2521 36.2994C51.2521 34.9884 51.1457 34.0317 50.9155 33.0396H35.9448V38.9569H44.7322C44.5551 40.4274 43.5984 42.642 41.4724 44.1301L41.4426 44.3282L46.176 47.9952L46.504 48.0279C49.5158 45.2463 51.2521 41.1537 51.2521 36.2994Z" fill="#4285F4"/>
<path d="M35.9453 51.889C40.2504 51.889 43.8646 50.4716 46.5045 48.0268L41.4729 44.129C40.1265 45.068 38.3193 45.7236 35.9453 45.7236C31.7288 45.7236 28.15 42.9421 26.8743 39.0976L26.6873 39.1135L21.7654 42.9226L21.701 43.1015C24.3231 48.3102 29.709 51.889 35.9453 51.889Z" fill="#34A853"/>
<path d="M26.874 39.0977C26.5374 38.1056 26.3426 37.0425 26.3426 35.9441C26.3426 34.8456 26.5374 33.7827 26.8563 32.7905L26.8474 32.5792L21.8638 28.709L21.7008 28.7865C20.6201 30.948 20 33.3752 20 35.9441C20 38.513 20.6201 40.9402 21.7008 43.1016L26.874 39.0977Z" fill="#FBBC05"/>
<path d="M35.9453 26.1654C38.9394 26.1654 40.9591 27.4587 42.1107 28.5395L46.6107 24.1457C43.847 21.5768 40.2504 20 35.9453 20C29.709 20 24.3231 23.5787 21.701 28.7874L26.8566 32.7915C28.15 28.9469 31.7288 26.1654 35.9453 26.1654Z" fill="#EB4335"/>
</g>
</g>
<defs>
<filter id="filter0_d_1277_768" x="0" y="0" width="72" height="72" filterUnits="userSpaceOnUse" color-interpolation-filters="sRGB">
<feFlood flood-opacity="0" result="BackgroundImageFix"/>
<feColorMatrix in="SourceAlpha" type="matrix" values="0 0 0 0 0 0 0 0 0 0 0 0 0 0 0 0 0 0 127 0" result="hardAlpha"/>
<feOffset/>
<feGaussianBlur stdDeviation="2"/>
<feComposite in2="hardAlpha" operator="out"/>
<feColorMatrix type="matrix" values="0 0 0 0 0 0 0 0 0 0 0 0 0 0 0 0 0 0 0.02 0"/>
<feBlend mode="normal" in2="BackgroundImageFix" result="effect1_dropShadow_1277_768"/>
<feBlend mode="normal" in="SourceGraphic" in2="effect1_dropShadow_1277_768" result="shape"/>
</filter>
<clipPath id="clip0_1277_768">
<rect width="32" height="32" fill="white" transform="translate(20 20)"/>
</clipPath>
</defs>
</svg>
