<svg width="17" height="16" viewBox="0 0 17 16" fill="none" xmlns="http://www.w3.org/2000/svg">
<g clip-path="url(#clip0_236_15106)">
<path d="M16.126 8.1497C16.126 7.49419 16.0728 7.01584 15.9577 6.51978H8.47241V9.47843H12.8661C12.7776 10.2137 12.2992 11.321 11.2362 12.0651L11.2213 12.1641L13.588 13.9976L13.752 14.0139C15.2579 12.6232 16.126 10.5769 16.126 8.1497Z" fill="#4285F4"/>
<path d="M8.47272 15.9446C10.6253 15.9446 12.4324 15.2359 13.7523 14.0134L11.2365 12.0646C10.5633 12.534 9.65972 12.8618 8.47272 12.8618C6.36445 12.8618 4.57507 11.4711 3.93721 9.54883L3.84372 9.55677L1.38277 11.4613L1.35059 11.5508C2.66161 14.1551 5.35456 15.9446 8.47272 15.9446Z" fill="#34A853"/>
<path d="M3.93701 9.54887C3.7687 9.05281 3.6713 8.52127 3.6713 7.97208C3.6713 7.42283 3.7687 6.89135 3.92815 6.39529L3.92369 6.28964L1.43191 4.35449L1.35038 4.39327C0.810046 5.474 0.5 6.68762 0.5 7.97208C0.5 9.25654 0.810046 10.4701 1.35038 11.5508L3.93701 9.54887Z" fill="#FBBC05"/>
<path d="M8.47248 3.08269C9.96952 3.08269 10.9793 3.72934 11.5552 4.26974L13.8052 2.07285C12.4233 0.788397 10.625 0 8.47248 0C5.35431 0 2.66136 1.78937 1.35034 4.39371L3.92811 6.39573C4.57483 4.47347 6.3642 3.08269 8.47248 3.08269Z" fill="#EB4335"/>
</g>
<defs>
<clipPath id="clip0_236_15106">
<rect width="16" height="16" fill="white" transform="translate(0.5)"/>
</clipPath>
</defs>
</svg>
