<svg width="21" height="24" viewBox="0 0 21 24" fill="none" xmlns="http://www.w3.org/2000/svg">
<path d="M16.8569 23.0335C15.5551 24.2968 14.1188 24.1 12.7498 23.5042C11.2943 22.8966 9.96365 22.8582 8.42648 23.5042C6.51222 24.3305 5.49625 24.0903 4.34337 23.0335C-2.16559 16.3324 -1.20485 6.12466 6.19278 5.74037C7.98695 5.83644 9.2431 6.73233 10.2999 6.80678C11.8707 6.48734 13.3743 5.57224 15.0555 5.69233C17.0754 5.85566 18.5862 6.65307 19.595 8.08696C15.4398 10.5849 16.4246 16.061 20.2411 17.5982C19.4772 19.6038 18.4973 21.5853 16.8546 23.0504L16.8569 23.0335ZM10.1558 5.66832C9.96125 2.69005 12.3751 0.240183 15.1516 0C15.5335 3.43462 12.0292 6.00457 10.1558 5.66832Z" fill="#0E0E0E"/>
</svg>
