<svg width="24" height="24" viewBox="0 0 24 24" fill="none" xmlns="http://www.w3.org/2000/svg">
<g clip-path="url(#clip0_25_1612)">
<path d="M23.4389 12.2247C23.4389 11.2414 23.3591 10.5239 23.1865 9.77979H11.9585V14.2178H18.5491C18.4162 15.3207 17.6987 16.9816 16.1042 18.0977L16.0818 18.2463L19.6319 20.9965L19.8779 21.021C22.1367 18.9349 23.4389 15.8654 23.4389 12.2247Z" fill="#4285F4"/>
<path d="M11.9591 23.9168C15.1879 23.9168 17.8985 22.8538 19.8784 21.0202L16.1048 18.0968C15.0949 18.8011 13.7396 19.2927 11.9591 19.2927C8.79667 19.2927 6.11261 17.2066 5.15582 14.3232L5.01557 14.3352L1.32415 17.192L1.27588 17.3262C3.24241 21.2327 7.28183 23.9168 11.9591 23.9168Z" fill="#34A853"/>
<path d="M5.15551 14.3228C4.90305 13.5787 4.75695 12.7814 4.75695 11.9576C4.75695 11.1338 4.90305 10.3365 5.14223 9.59244L5.13554 9.43397L1.39786 6.53125L1.27557 6.58942C0.465069 8.21052 0 10.0309 0 11.9576C0 13.8843 0.465069 15.7047 1.27557 17.3258L5.15551 14.3228Z" fill="#FBBC05"/>
<path d="M11.9591 4.62403C14.2046 4.62403 15.7194 5.59402 16.5831 6.40461L19.9581 3.10928C17.8853 1.1826 15.1879 0 11.9591 0C7.28183 0 3.24241 2.68406 1.27588 6.59057L5.14254 9.59359C6.11261 6.7102 8.79667 4.62403 11.9591 4.62403Z" fill="#EB4335"/>
</g>
<defs>
<clipPath id="clip0_25_1612">
<rect width="24" height="24" fill="white"/>
</clipPath>
</defs>
</svg>
