<svg width="17" height="20" viewBox="0 0 17 20" fill="none" xmlns="http://www.w3.org/2000/svg">
<path d="M14.1092 19.1876C13.0252 20.2395 11.8292 20.0756 10.6892 19.5795C9.47723 19.0735 8.36923 19.0416 7.08923 19.5795C5.49523 20.2676 4.64923 20.0676 3.68923 19.1876C-1.73077 13.6076 -0.930771 5.10757 5.22923 4.78757C6.72323 4.86757 7.76923 5.61357 8.64923 5.67557C9.95723 5.40957 11.2092 4.64757 12.6092 4.74757C14.2912 4.88357 15.5492 5.54757 16.3892 6.74157C12.9292 8.82157 13.7492 13.3816 16.9273 14.6616C16.2912 16.3316 15.4752 17.9816 14.1073 19.2016L14.1092 19.1876ZM8.52923 4.72757C8.36723 2.24757 10.3772 0.207568 12.6892 0.00756836C13.0072 2.86757 10.0892 5.00757 8.52923 4.72757Z" fill="#0E0E0E"/>
</svg>
