<svg width="24" height="24" viewBox="0 0 24 24" fill="none" xmlns="http://www.w3.org/2000/svg">
<path d="M11 4C8.79086 4 7 5.79086 7 8C7 10.2091 8.79086 12 11 12C13.2091 12 15 10.2091 15 8C15 5.79086 13.2091 4 11 4ZM8 8C8 6.34315 9.34315 5 11 5C12.6569 5 14 6.34315 14 8C14 9.65685 12.6569 11 11 11C9.34315 11 8 9.65685 8 8ZM6.00873 13C4.90315 13 4 13.8869 4 15C4 16.6912 4.83281 17.9663 6.13499 18.7966C7.41697 19.614 9.14526 20 11 20C11.4109 20 11.8155 19.9811 12.2105 19.9427C11.973 19.6472 11.7654 19.3266 11.5923 18.9855C11.398 18.9951 11.2004 19 11 19C9.26489 19 7.74318 18.636 6.67262 17.9534C5.62226 17.2837 5 16.3088 5 15C5 14.4467 5.44786 14 6.00873 14L11.5997 14C11.7826 13.6422 12.0035 13.3071 12.2572 13L6.00873 13ZM16.5 21C18.9853 21 21 18.9853 21 16.5C21 14.0147 18.9853 12 16.5 12C14.0147 12 12 14.0147 12 16.5C12 18.9853 14.0147 21 16.5 21ZM16.5 14C16.7761 14 17 14.2239 17 14.5V16H18.5C18.7761 16 19 16.2239 19 16.5C19 16.7761 18.7761 17 18.5 17H17V18.5C17 18.7761 16.7761 19 16.5 19C16.2239 19 16 18.7761 16 18.5V17H14.5C14.2239 17 14 16.7761 14 16.5C14 16.2239 14.2239 16 14.5 16H16V14.5C16 14.2239 16.2239 14 16.5 14Z" fill="#0E0E0E"/>
</svg>
