<svg width="50" height="50" viewBox="0 0 50 50" fill="none" xmlns="http://www.w3.org/2000/svg">
<rect x="0.75" y="0.75" width="48.5" height="48.5" rx="24.25" fill="#F8F8F8"/>
<rect x="0.75" y="0.75" width="48.5" height="48.5" rx="24.25" stroke="#D5D5D5" stroke-width="0.5"/>
<path d="M24.9989 14.9963C29.0488 14.9963 32.3556 18.1911 32.4947 22.2454L32.4989 22.4963V26.5933L33.8789 29.7493C33.9479 29.9072 33.9836 30.0777 33.9836 30.2501C33.9836 30.9405 33.424 31.5001 32.7336 31.5001L27.9989 31.5016C27.9989 33.1585 26.6557 34.5016 24.9989 34.5016C23.4012 34.5016 22.0952 33.2527 22.004 31.6779L21.9984 31.4993L17.2738 31.5001C17.1024 31.5001 16.9329 31.4649 16.7758 31.3966C16.1426 31.1216 15.8522 30.3853 16.1272 29.7521L17.4989 26.5943V22.4962C17.4995 18.3414 20.851 14.9963 24.9989 14.9963ZM26.4984 31.4993L23.4989 31.5016C23.4989 32.33 24.1705 33.0016 24.9989 33.0016C25.7786 33.0016 26.4193 32.4067 26.492 31.6461L26.4984 31.4993ZM24.9989 16.4963C21.6787 16.4963 18.9994 19.1706 18.9989 22.4963V26.906L17.6549 30.0001H32.3514L30.9989 26.9069L30.999 22.5092L30.9953 22.284C30.8842 19.0505 28.2405 16.4963 24.9989 16.4963Z" fill="#212121"/>
</svg>
