<svg width="24" height="24" viewBox="0 0 24 24" fill="none" xmlns="http://www.w3.org/2000/svg">
<path d="M17.5275 5.00098C18.3559 5.00098 19.0275 5.67255 19.0275 6.50098V7.89655C19.0275 8.83563 18.5012 9.69551 17.665 10.1228L13.4762 12.2635C14.7017 12.8199 15.5539 14.0544 15.5539 15.488C15.5539 17.4428 13.9692 19.0275 12.0144 19.0275C10.0595 19.0275 8.47483 17.4428 8.47483 15.488C8.47483 14.0544 9.32705 12.8199 10.5525 12.2635L6.36374 10.1228C5.58324 9.72399 5.07277 8.94836 5.00817 8.0832L5.00122 7.89655V6.50098C5.00122 5.67255 5.67279 5.00098 6.50122 5.00098H17.5275ZM12.0144 12.9485C10.6118 12.9485 9.47483 14.0854 9.47483 15.488C9.47483 16.8905 10.6118 18.0275 12.0144 18.0275C13.4169 18.0275 14.5539 16.8905 14.5539 15.488C14.5539 14.0854 13.4169 12.9485 12.0144 12.9485ZM14.5532 6.00098H9.47422V10.589L11.7869 11.7707C11.9297 11.8437 12.099 11.8437 12.2418 11.7707L14.5532 10.589V6.00098ZM8.47422 6.00098H6.50122C6.22508 6.00098 6.00122 6.22483 6.00122 6.50098V7.89655L6.00772 8.0363C6.05514 8.54418 6.35879 8.99729 6.81873 9.23229L8.47422 10.078V6.00098ZM17.5275 6.00098H15.5532V10.078L17.21 9.23229C17.7117 8.97592 18.0275 8.46 18.0275 7.89655V6.50098C18.0275 6.22483 17.8036 6.00098 17.5275 6.00098Z" fill="#8A8A8A"/>
</svg>
