<svg width="24" height="24" viewBox="0 0 24 24" fill="none" xmlns="http://www.w3.org/2000/svg">
<path d="M5.50004 3.99609L5.58992 4.00415C5.79401 4.04119 5.95494 4.20213 5.99199 4.40622L6.00004 4.49609L5.99938 6.70762C7.16432 5.38448 8.74848 4.46588 10.5422 4.13344C14.8865 3.32827 19.0609 6.1973 19.8661 10.5416C20.6712 14.8859 17.8022 19.0603 13.4579 19.8655C9.11362 20.6707 4.93909 17.8017 4.13392 13.4574C4.04721 12.9895 3.97637 12.1379 4.00418 11.4783C4.01582 11.2024 4.24891 10.9882 4.5248 10.9998C4.8007 11.0114 5.01493 11.2445 5.0033 11.5204C4.97884 12.1003 5.0435 12.8776 5.11718 13.2751C5.82169 17.0764 9.47442 19.5868 13.2757 18.8823C17.0769 18.1777 19.5873 14.5251 18.8828 10.7238C18.1783 6.92257 14.5256 4.41217 10.7244 5.11669C8.88523 5.45756 7.29914 6.50146 6.25844 7.99497L8.99805 7.99609L9.08792 8.00415C9.32117 8.04649 9.49805 8.25063 9.49805 8.49609C9.49805 8.74155 9.32117 8.9457 9.08792 8.98804L8.99805 8.99609H5.50004L5.41017 8.98804C5.20607 8.95099 5.04514 8.79006 5.0081 8.58597L5.00004 8.49609V4.49609L5.0081 4.40622C5.04514 4.20213 5.20607 4.04119 5.41017 4.00415L5.50004 3.99609ZM11.5 7.99609L11.5899 8.00415C11.794 8.04119 11.9549 8.20213 11.992 8.40622L12 8.49609V12H14L14.0899 12.0081C14.3232 12.0504 14.5 12.2545 14.5 12.5C14.5 12.7455 14.3232 12.9496 14.0899 12.9919L14 13H11.5L11.4102 12.9919C11.2061 12.9549 11.0451 12.794 11.0081 12.5899L11 12.5V8.49609L11.0081 8.40622C11.0451 8.20213 11.2061 8.04119 11.4102 8.00415L11.5 7.99609Z" fill="#8A8A8A"/>
</svg>
