<svg width="48" height="48" viewBox="0 0 48 48" fill="none" xmlns="http://www.w3.org/2000/svg">
<rect width="48" height="48" rx="24" fill="#F5F5F5"/>
<path d="M23.4993 15.9961C23.2231 15.9961 22.9993 16.22 22.9993 16.4961C22.9993 16.7722 23.2231 16.9961 23.4993 16.9961L27.0001 16.9961V18.8645C27.0001 20.0307 25.8315 20.9998 24.5001 20.9998C24.224 20.9998 24.0001 21.2236 24.0001 21.4998C24.0001 21.7759 24.224 21.9998 24.5001 21.9998C26.2095 21.9998 28.0001 20.7425 28.0001 18.8645V16.4961C28.0001 16.22 27.7763 15.9961 27.5001 15.9961L23.4993 15.9961ZM21.9617 19.3075C21.8841 19.1211 21.702 18.9997 21.5002 18.9997C21.2983 18.9997 21.1162 19.1211 21.0386 19.3074L16.0386 31.3074C15.9324 31.5623 16.0529 31.8551 16.3078 31.9613C16.5627 32.0675 16.8555 31.9469 16.9617 31.692L18.4988 28.0029H24.5001L26.0386 31.6967C26.1447 31.9516 26.4375 32.0722 26.6924 31.966C26.9473 31.8599 27.0679 31.5671 26.9617 31.3122L25.2995 27.3214C25.2967 27.3143 25.2938 27.3073 25.2907 27.3003L21.9617 19.3075ZM24.0836 27.0029H18.9155L21.5 20.8L24.0836 27.0029ZM29.5013 15.9961C29.7775 15.9961 30.0013 16.22 30.0013 16.4961V20.0014H31.4999C31.776 20.0014 31.9999 20.2253 31.9999 20.5014C31.9999 20.7776 31.776 21.0014 31.4999 21.0014H30.0013V27.4961C30.0013 27.7723 29.7775 27.9961 29.5013 27.9961C29.2252 27.9961 29.0013 27.7723 29.0013 27.4961V16.4961C29.0013 16.22 29.2252 15.9961 29.5013 15.9961Z" fill="#111111"/>
</svg>
