<svg width="24" height="24" viewBox="0 0 24 24" fill="none" xmlns="http://www.w3.org/2000/svg">
<path d="M11.7226 4.08397C11.8906 3.97201 12.1094 3.97201 12.2774 4.08397C14.2155 5.3761 16.3117 6.18231 18.5707 6.50503C18.817 6.54021 19 6.75118 19 7V11.3411C18.744 10.9561 18.4014 10.6335 18 10.4013V7.42787C16.0146 7.09055 14.1473 6.39606 12.4009 5.34583L12 5.09715L11.5991 5.34583C9.85275 6.39606 7.98541 7.09055 6 7.42787V11.5C6 14.8921 7.96795 17.3634 12 18.9632V19C12 19.3416 12.0857 19.6633 12.2367 19.9446C12.2176 19.952 12.1986 19.9593 12.1795 19.9667C12.064 20.0111 11.936 20.0111 11.8205 19.9667C7.30699 18.2307 5 15.3913 5 11.5V7C5 6.75118 5.18296 6.54021 5.42929 6.50503C7.68833 6.18231 9.78446 5.3761 11.7226 4.08397ZM14.5 14V13C14.5 11.8954 15.3954 11 16.5 11C17.6046 11 18.5 11.8954 18.5 13V14H19C19.5523 14 20 14.4477 20 15V19C20 19.5523 19.5523 20 19 20H14C13.4477 20 13 19.5523 13 19V15C13 14.4477 13.4477 14 14 14H14.5ZM15.5 13V14H17.5V13C17.5 12.4477 17.0523 12 16.5 12C15.9477 12 15.5 12.4477 15.5 13ZM17.25 17C17.25 16.5858 16.9142 16.25 16.5 16.25C16.0858 16.25 15.75 16.5858 15.75 17C15.75 17.4142 16.0858 17.75 16.5 17.75C16.9142 17.75 17.25 17.4142 17.25 17Z" fill="#111111"/>
</svg>
