<svg width="34" height="34" viewBox="0 0 34 34" fill="none" xmlns="http://www.w3.org/2000/svg">
<rect x="0.75" y="0.75" width="32.5" height="32.5" rx="16.25" fill="#F8F8F8"/>
<rect x="0.75" y="0.75" width="32.5" height="32.5" rx="16.25" stroke="#D5D5D5" stroke-width="0.5"/>
<path d="M8 10.25C8 9.83579 8.33579 9.5 8.75 9.5H25.25C25.6642 9.5 26 9.83579 26 10.25C26 10.6642 25.6642 11 25.25 11H8.75C8.33579 11 8 10.6642 8 10.25ZM8 16.25C8 15.8358 8.33579 15.5 8.75 15.5H25.25C25.6642 15.5 26 15.8358 26 16.25C26 16.6642 25.6642 17 25.25 17H8.75C8.33579 17 8 16.6642 8 16.25ZM8 22.25C8 21.8358 8.33579 21.5 8.75 21.5H25.25C25.6642 21.5 26 21.8358 26 22.25C26 22.6642 25.6642 23 25.25 23H8.75C8.33579 23 8 22.6642 8 22.25Z" fill="#212121"/>
</svg>
