<svg width="24" height="24" viewBox="0 0 24 24" fill="none" xmlns="http://www.w3.org/2000/svg">
<path d="M6.5 8.75C6.5 7.50736 7.50736 6.5 8.75 6.5C9.99264 6.5 11 7.50736 11 8.75C11 9.99264 9.99264 11 8.75 11C7.50736 11 6.5 9.99264 6.5 8.75ZM8.75 5.5C6.95507 5.5 5.5 6.95507 5.5 8.75C5.5 10.5449 6.95507 12 8.75 12C10.5449 12 12 10.5449 12 8.75C12 6.95507 10.5449 5.5 8.75 5.5ZM14.4368 17.1453C14.9748 17.3644 15.6518 17.5 16.4995 17.5C18.381 17.5 19.4213 16.8322 19.9689 16.0656C20.2335 15.6953 20.3653 15.3257 20.4313 15.0486C20.4644 14.9096 20.4814 14.7919 20.4901 14.706C20.4945 14.663 20.4969 14.6277 20.4981 14.6013C20.4987 14.5881 20.4991 14.5771 20.4993 14.5685L20.4995 14.5574L20.4995 14.5533L20.4995 14.5515L20.4995 14.55V14.5C20.4995 13.6716 19.828 13 18.9995 13H14.3711C14.6102 13.2895 14.7912 13.6288 14.8962 14H18.9995C19.2757 14 19.4995 14.2239 19.4995 14.5V14.5462L19.4993 14.5537C19.4988 14.5633 19.4977 14.5806 19.4953 14.6045C19.4904 14.6526 19.48 14.7263 19.4585 14.817C19.4151 14.9993 19.3281 15.2422 19.1552 15.4844C18.8277 15.9428 18.1181 16.5 16.4995 16.5C15.7679 16.5 15.222 16.3862 14.8132 16.219C14.7312 16.4984 14.6116 16.8153 14.4368 17.1453ZM3.5 15C3.5 13.8954 4.39543 13 5.5 13H12C13.1046 13 14 13.8954 14 15V15.0625L14 15.064L14 15.0658L14 15.0705L13.9997 15.0835C13.9995 15.0938 13.9991 15.1074 13.9983 15.1241C13.9968 15.1574 13.9939 15.2031 13.9883 15.2593C13.9772 15.3716 13.9555 15.5272 13.913 15.7118C13.8282 16.08 13.6586 16.5719 13.3176 17.0655C12.6166 18.0801 11.2632 19 8.75 19C6.23685 19 4.8834 18.0801 4.18238 17.0655C3.8414 16.5719 3.67175 16.08 3.58697 15.7118C3.54446 15.5272 3.52278 15.3716 3.5117 15.2593C3.50614 15.2031 3.50322 15.1574 3.50169 15.1241C3.50092 15.1074 3.5005 15.0938 3.50027 15.0835L3.50005 15.0705L3.50001 15.0658L3.5 15.064L3.5 15.0625V15ZM4.5 15.0602L4.50002 15.0612L4.50063 15.0781C4.50141 15.0951 4.50313 15.1233 4.50686 15.1611C4.51433 15.2368 4.52976 15.3497 4.56146 15.4874C4.62512 15.7638 4.75235 16.1312 5.00512 16.497C5.4916 17.2012 6.51315 18 8.75 18C10.9868 18 12.0084 17.2012 12.4949 16.497C12.7477 16.1312 12.8749 15.7638 12.9385 15.4874C12.9702 15.3497 12.9857 15.2368 12.9931 15.1611C12.9969 15.1233 12.9986 15.0951 12.9994 15.0781L13 15.0612L13 15.0602V15C13 14.4477 12.5523 14 12 14H5.5C4.94772 14 4.5 14.4477 4.5 15V15.0602ZM15 9.5C15 8.67157 15.6716 8 16.5 8C17.3284 8 18 8.67157 18 9.5C18 10.3284 17.3284 11 16.5 11C15.6716 11 15 10.3284 15 9.5ZM16.5 7C15.1193 7 14 8.11929 14 9.5C14 10.8807 15.1193 12 16.5 12C17.8807 12 19 10.8807 19 9.5C19 8.11929 17.8807 7 16.5 7Z" fill="#8A8A8A"/>
</svg>
