<svg width="30" height="30" viewBox="0 0 30 30" fill="none" xmlns="http://www.w3.org/2000/svg">
<path d="M15.75 5.87401C15.6526 5.87506 15.5559 5.85691 15.4654 5.8206C15.375 5.78428 15.2926 5.73051 15.223 5.66235C15.1533 5.59419 15.0978 5.51298 15.0595 5.42336C15.0213 5.33373 15.001 5.23745 15 5.14001C15 2.30001 17.352 6.86236e-06 20.248 6.86236e-06C20.3455 -0.00131414 20.4423 0.0166526 20.5329 0.0528742C20.6234 0.0890958 20.7059 0.142858 20.7756 0.211069C20.8453 0.27928 20.9008 0.360596 20.939 0.45034C20.9772 0.540084 20.9972 0.636488 20.998 0.734007C20.998 3.57401 18.648 5.87401 15.75 5.87401Z" fill="black"/>
<path d="M15.75 5.87401C15.6526 5.87506 15.5559 5.85691 15.4654 5.8206C15.375 5.78428 15.2926 5.73051 15.223 5.66235C15.1533 5.59419 15.0978 5.51298 15.0595 5.42336C15.0213 5.33373 15.001 5.23745 15 5.14001C15 2.30001 17.352 6.86236e-06 20.248 6.86236e-06C20.3455 -0.00131414 20.4423 0.0166526 20.5329 0.0528742C20.6234 0.0890958 20.7059 0.142858 20.7756 0.211069C20.8453 0.27928 20.9008 0.360596 20.939 0.45034C20.9772 0.540084 20.9972 0.636488 20.998 0.734007C20.998 3.57401 18.648 5.87401 15.75 5.87401ZM26.7 21.336C26.99 21.548 27.084 21.936 26.92 22.252C24.28 27.424 22.174 30 20.25 30C19.354 30 18.474 29.716 17.616 29.164C17.0002 28.7686 16.2871 28.5512 15.5554 28.5356C14.8238 28.5201 14.102 28.7071 13.47 29.076C12.43 29.686 11.44 30 10.5 30C7.67 30 3 21.466 3 16.784C3 11.784 5.678 7.97201 9.75 7.97201C11.666 7.97201 13.32 8.24801 14.71 8.81001C15.298 9.04601 15.964 9.03001 16.538 8.76001C17.666 8.22801 19.154 7.97201 20.998 7.97201C23.252 7.97201 25.218 9.07201 26.85 11.202C26.909 11.2788 26.952 11.3667 26.9765 11.4604C27.001 11.5542 27.0063 11.6519 26.9924 11.7477C26.9784 11.8436 26.9453 11.9357 26.8951 12.0185C26.8449 12.1013 26.7785 12.1733 26.7 12.23C24.878 13.57 24 15.072 24 16.784C24 18.494 24.878 19.998 26.7 21.336Z" fill="black"/>
<path d="M26.7 21.336C26.99 21.548 27.084 21.936 26.92 22.252C24.28 27.424 22.174 30 20.25 30C19.354 30 18.474 29.716 17.616 29.164C17.0002 28.7686 16.2871 28.5511 15.5554 28.5356C14.8238 28.5201 14.102 28.7071 13.47 29.076C12.43 29.686 11.44 30 10.5 30C7.67 30 3 21.466 3 16.784C3 11.784 5.678 7.97198 9.75 7.97198C11.666 7.97198 13.32 8.24799 14.71 8.80999C15.298 9.04599 15.964 9.02998 16.538 8.75998C17.666 8.22798 19.154 7.97198 20.998 7.97198C23.252 7.97198 25.218 9.07198 26.85 11.202C26.909 11.2788 26.952 11.3667 26.9765 11.4604C27.001 11.5541 27.0063 11.6518 26.9924 11.7477C26.9784 11.8436 26.9453 11.9356 26.8951 12.0185C26.8449 12.1013 26.7785 12.1732 26.7 12.23C24.878 13.57 24 15.072 24 16.784C24 18.494 24.878 19.998 26.7 21.336Z" fill="black"/>
</svg>
