<svg width="30" height="30" viewBox="0 0 30 30" fill="none" xmlns="http://www.w3.org/2000/svg">
<path d="M15 18.6002C13.8625 18.6002 12.9375 17.6752 12.9375 16.5377V13.4502C12.9375 12.3127 13.8625 11.3877 15 11.3877C16.1375 11.3877 17.0625 12.3127 17.0625 13.4502V16.5377C17.0625 17.6752 16.1375 18.6002 15 18.6002Z" stroke="#0F488F" stroke-width="3" stroke-linecap="round"/>
<path d="M21.225 16.8371C20.975 20.0621 18.275 22.5871 15 22.5871C11.55 22.5871 8.75 19.7871 8.75 16.3371V13.6621C8.75 10.2121 11.55 7.41211 15 7.41211C18.2375 7.41211 20.9 9.8746 21.2125 13.0246" stroke="#0F488F" stroke-width="3" stroke-linecap="round"/>
<path d="M18.75 2.5H21.25C25 2.5 27.5 5 27.5 8.75V11.25" stroke="#0F488F" stroke-width="3" stroke-miterlimit="10" stroke-linecap="round" stroke-linejoin="round"/>
<path d="M2.5 11.25V8.75C2.5 5 5 2.5 8.75 2.5H11.25" stroke="#0F488F" stroke-width="3" stroke-miterlimit="10" stroke-linecap="round" stroke-linejoin="round"/>
<path d="M18.75 27.5H21.25C25 27.5 27.5 25 27.5 21.25V18.75" stroke="#0F488F" stroke-width="3" stroke-miterlimit="10" stroke-linecap="round" stroke-linejoin="round"/>
<path d="M2.5 18.75V21.25C2.5 25 5 27.5 8.75 27.5H11.25" stroke="#0F488F" stroke-width="3" stroke-miterlimit="10" stroke-linecap="round" stroke-linejoin="round"/>
</svg>
