<svg width="36" height="37" viewBox="0 0 36 37" fill="none" xmlns="http://www.w3.org/2000/svg">
<g id="clarity:two-way-arrows-line">
<path id="Vector" d="M23.43 17.3299C23.243 17.1402 22.9884 17.0327 22.7221 17.0308C22.4558 17.0289 22.1996 17.1329 22.01 17.3199C21.8204 17.5069 21.7128 17.7615 21.7109 18.0278C21.709 18.2941 21.813 18.5502 22 18.7399L25.72 22.4999H7.83C7.56479 22.4999 7.31043 22.6052 7.1229 22.7928C6.93536 22.9803 6.83 23.2347 6.83 23.4999C6.83 23.7651 6.93536 24.0194 7.1229 24.207C7.31043 24.3945 7.56479 24.4999 7.83 24.4999H25.72L22 28.1999C21.9074 28.2931 21.8341 28.4037 21.7843 28.5252C21.7344 28.6468 21.709 28.777 21.7094 28.9084C21.7099 29.0398 21.7363 29.1698 21.787 29.291C21.8377 29.4123 21.9118 29.5223 22.005 29.6149C22.0982 29.7075 22.2088 29.7808 22.3304 29.8306C22.4519 29.8805 22.5821 29.9059 22.7135 29.9054C22.8449 29.905 22.9749 29.8786 23.0962 29.8279C23.2174 29.7772 23.3274 29.7031 23.42 29.6099L29.53 23.4999L23.43 17.3299Z" fill="black"/>
<path id="Vector_2" d="M13.24 18.95C13.4386 18.9512 13.6331 18.8931 13.7986 18.7833C13.9641 18.6735 14.0932 18.5169 14.1694 18.3335C14.2455 18.1501 14.2653 17.9481 14.2263 17.7533C14.1872 17.5586 14.091 17.3799 13.95 17.24L10.24 13.5H28.12C28.3852 13.5 28.6396 13.3947 28.8271 13.2071C29.0146 13.0196 29.12 12.7652 29.12 12.5C29.12 12.2348 29.0146 11.9804 28.8271 11.7929C28.6396 11.6054 28.3852 11.5 28.12 11.5H10.24L13.95 7.77002C14.0426 7.67678 14.1159 7.56622 14.1657 7.44464C14.2156 7.32307 14.241 7.19287 14.2406 7.06148C14.2401 6.93008 14.2137 6.80007 14.163 6.67885C14.1123 6.55764 14.0382 6.4476 13.945 6.35502C13.8518 6.26243 13.7412 6.18912 13.6196 6.13927C13.4981 6.08942 13.3679 6.064 13.2365 6.06446C12.9711 6.0654 12.717 6.17171 12.53 6.36002L6.42 12.5L12.53 18.64C12.6218 18.7363 12.7318 18.8133 12.8538 18.8666C12.9757 18.9198 13.107 18.9482 13.24 18.95Z" fill="black"/>
</g>
</svg>
