<svg xmlns="http://www.w3.org/2000/svg" width="21" height="20" viewBox="0 0 21 20" fill="none">
  <path opacity="0.4" d="M16.3037 0H4.30371C2.09457 0 0.303711 1.79086 0.303711 4V16C0.303711 18.2091 2.09457 20 4.30371 20H16.3037C18.5128 20 20.3037 18.2091 20.3037 16V4C20.3037 1.79086 18.5128 0 16.3037 0Z" fill="#212121"/>
  <path d="M15.3037 5H12.8037C10.5946 5 8.80371 6.79086 8.80371 9V11H5.30371V14H8.80371V20H11.8037V14H15.3037V11H11.8037V9C11.8037 8.44772 12.2514 8 12.8037 8H15.3037V5Z" fill="#212121"/>
</svg>