<svg width="120" height="36" viewBox="0 0 120 36" fill="none" xmlns="http://www.w3.org/2000/svg">
<g id="Frame">
<g id="Group">
<path id="Vector" d="M5 1C3.80653 1 2.66193 1.47411 1.81802 2.31802C0.974106 3.16193 0.5 4.30653 0.5 5.5V30.5C0.5 31.6935 0.974106 32.8381 1.81802 33.682C2.66193 34.5259 3.80653 35 5 35H115C116.193 35 117.338 34.5259 118.182 33.682C119.026 32.8381 119.5 31.6935 119.5 30.5V5.5C119.5 4.30653 119.026 3.16193 118.182 2.31802C117.338 1.47411 116.193 1 115 1H5Z" fill="#0A0B09" stroke="#B0B2B7"/>
<g id="Group_2">
<path id="Vector_2" d="M24.3559 17.2935C24.3677 16.4778 24.5865 15.6784 24.9917 14.9704C25.397 14.2623 25.9755 13.6688 26.6729 13.2455C26.2262 12.6151 25.6393 12.097 24.9584 11.7319C24.2775 11.3668 23.5211 11.1647 22.7489 11.1415C21.0969 10.9695 19.4969 12.1215 18.6549 12.1215C17.7969 12.1215 16.5019 11.1585 15.1069 11.1875C14.2067 11.2149 13.3288 11.4741 12.5582 11.9401C11.7876 12.4061 11.1502 13.0631 10.7079 13.8475C8.80685 17.1115 10.2249 21.9095 12.0469 24.5485C12.9579 25.8405 14.0239 27.2845 15.4169 27.2335C16.7809 27.1765 17.2909 26.3705 18.9369 26.3705C20.5679 26.3705 21.0469 27.2335 22.4679 27.2005C23.9319 27.1765 24.8539 25.9025 25.7339 24.5985C26.3882 23.6786 26.8922 22.6606 27.2269 21.5825C26.3793 21.2296 25.6548 20.6343 25.1443 19.8713C24.6337 19.1083 24.3588 18.2116 24.3559 17.2935ZM21.6699 9.4065C22.4671 8.4593 22.8607 7.23695 22.7659 6.0025C21.5491 6.12828 20.4238 6.7056 19.6119 7.6205C19.2168 8.06529 18.9139 8.58406 18.7208 9.14675C18.5277 9.70943 18.4482 10.3049 18.4869 10.8985C19.0955 10.9054 19.6978 10.7748 20.249 10.5164C20.8001 10.2581 21.2858 9.8787 21.6699 9.4065ZM41.5969 23.9615H36.9429L35.8249 27.2345H33.8529L38.2629 15.1265H40.3099L44.7199 27.2345H42.7139L41.5969 23.9615ZM37.4249 22.4515H41.1149L39.2949 17.1405H39.2449L37.4249 22.4515ZM54.2399 22.8205C54.2399 25.5645 52.7599 27.3265 50.5249 27.3265C49.9603 27.3567 49.3986 27.228 48.9035 26.9551C48.4084 26.6822 47.9997 26.276 47.7239 25.7825H47.6819V30.1545H45.8539V18.4065H47.6229V19.8755H47.6569C47.945 19.3844 48.3604 18.9801 48.8592 18.7054C49.358 18.4306 49.9217 18.2956 50.4909 18.3145C52.7509 18.3145 54.2399 20.0855 54.2399 22.8205ZM52.3619 22.8205C52.3619 21.0335 51.4309 19.8585 50.0089 19.8585C48.6129 19.8585 47.6739 21.0585 47.6739 22.8205C47.6739 24.6005 48.6138 25.7905 50.0089 25.7905C51.4309 25.7905 52.3619 24.6245 52.3619 22.8205ZM64.0399 22.8205C64.0399 25.5645 62.5579 27.3265 60.3239 27.3265C59.7593 27.3567 59.1976 27.228 58.7025 26.9551C58.2074 26.6822 57.7987 26.276 57.5229 25.7825H57.4799V30.1545H55.6529V18.4065H57.4219V19.8755H57.4549C57.7431 19.3842 58.1587 18.9798 58.6577 18.7051C59.1566 18.4303 59.7206 18.2954 60.2899 18.3145C62.5499 18.3145 64.0399 20.0855 64.0399 22.8205ZM62.1599 22.8205C62.1599 21.0335 61.2299 19.8585 59.8078 19.8585C58.4118 19.8585 57.4729 21.0585 57.4729 22.8205C57.4729 24.6005 58.4118 25.7905 59.8078 25.7905C61.2289 25.7905 62.1599 24.6245 62.1599 22.8205ZM70.5149 23.8605C70.6509 25.0605 71.8268 25.8505 73.4348 25.8505C74.9748 25.8505 76.0829 25.0605 76.0829 23.9785C76.0829 23.0385 75.4149 22.4765 73.8329 22.0905L72.2499 21.7125C70.0069 21.1755 68.9659 20.1355 68.9659 18.4485C68.9659 16.3595 70.8019 14.9245 73.4099 14.9245C75.9899 14.9245 77.7589 16.3595 77.8179 18.4485H75.9739C75.8639 17.2405 74.8559 16.5115 73.3839 16.5115C71.9119 16.5115 70.9039 17.2485 70.9039 18.3225C70.9039 19.1785 71.5479 19.6825 73.1209 20.0685L74.4669 20.3955C76.9719 20.9835 78.0129 21.9815 78.0129 23.7525C78.0129 26.0175 76.1929 27.4355 73.2989 27.4355C70.5909 27.4355 68.7628 26.0505 68.6448 23.8605H70.5149ZM81.9569 16.3175V18.4075H83.6499V19.8415H81.9569V24.7085C81.9569 25.4645 82.2969 25.8165 83.0399 25.8165C83.2409 25.8125 83.4419 25.7985 83.6409 25.7745V27.2005C83.3062 27.2626 82.9661 27.2907 82.6259 27.2845C80.8239 27.2845 80.1209 26.6135 80.1209 24.9015V19.8415H78.8269V18.4065H80.1209V16.3175H81.9569ZM84.6299 22.8205C84.6299 20.0435 86.2799 18.2985 88.8529 18.2985C91.4339 18.2985 93.0759 20.0435 93.0759 22.8205C93.0759 25.6065 91.4428 27.3435 88.8529 27.3435C86.2639 27.3435 84.6299 25.6065 84.6299 22.8205ZM91.2139 22.8205C91.2139 20.9155 90.3339 19.7905 88.8529 19.7905C87.3728 19.7905 86.4929 20.9245 86.4929 22.8205C86.4929 24.7335 87.3728 25.8505 88.8529 25.8505C90.3329 25.8505 91.2139 24.7335 91.2139 22.8205ZM94.5829 18.4065H96.3259V19.9095H96.3679C96.4878 19.4383 96.7662 19.0227 97.1561 18.7323C97.5461 18.4419 98.0241 18.2944 98.5099 18.3145C98.7199 18.3145 98.9299 18.3365 99.1359 18.3825V20.0765C98.8699 19.9958 98.5927 19.9586 98.3149 19.9665C98.0496 19.9557 97.7852 20.002 97.5395 20.1025C97.2938 20.2029 97.0726 20.355 96.8909 20.5485C96.5249 20.9385 96.3499 21.4685 96.4109 21.9985V27.2345H94.5829V18.4065ZM107.561 24.6415C107.315 26.2435 105.741 27.3435 103.728 27.3435C101.138 27.3435 99.5299 25.6235 99.5299 22.8635C99.5299 20.0935 101.147 18.2985 103.65 18.2985C106.114 18.2985 107.663 19.9755 107.663 22.6525V23.2725H101.375V23.3825C101.316 24.0395 101.545 24.6905 102.003 25.1685C102.23 25.4056 102.505 25.5918 102.81 25.7151C103.114 25.8383 103.442 25.8957 103.77 25.8835C104.2 25.9244 104.633 25.8258 105.003 25.6021C105.373 25.3785 105.662 25.0417 105.826 24.6415H107.561ZM101.384 22.0065H105.834C105.85 21.714 105.805 21.4214 105.702 21.1471C105.599 20.8729 105.441 20.6231 105.236 20.4135C105.03 20.2029 104.783 20.0367 104.511 19.9254C104.238 19.8141 103.945 19.76 103.651 19.7665C103.051 19.7627 102.474 19.9972 102.047 20.4185C101.621 20.8385 101.382 21.4105 101.384 22.0065ZM36.8099 6.2315C37.1976 6.20378 37.5866 6.26282 37.9487 6.40431C38.3107 6.54581 38.6367 6.76622 38.9029 7.0495C39.1701 7.33389 39.3713 7.67381 39.4919 8.04495C39.6126 8.4161 39.6498 8.80931 39.6009 9.1965C39.6009 11.1025 38.5769 12.1985 36.8099 12.1985H34.6669V6.2305L36.8099 6.2315ZM35.5879 11.3545H36.7069C36.984 11.371 37.2613 11.3252 37.5184 11.2205C37.7756 11.1158 38.006 10.9549 38.1929 10.7495C38.5719 10.3335 38.7449 9.7675 38.6629 9.2085C38.7003 8.93402 38.6769 8.65467 38.5943 8.39025C38.5117 8.12584 38.3719 7.88284 38.1849 7.6785C37.9986 7.47464 37.7694 7.31469 37.5138 7.21024C37.2582 7.10578 36.9826 7.05942 36.7069 7.0745H35.5879V11.3545ZM40.6419 9.9445C40.6039 9.54966 40.6766 9.15205 40.8518 8.79617C41.027 8.4403 41.2978 8.14021 41.6339 7.9295C41.9692 7.71983 42.3568 7.60865 42.7523 7.60865C43.1479 7.60865 43.5355 7.71983 43.8708 7.9295C44.2071 8.14008 44.4781 8.44012 44.6535 8.796C44.8289 9.15188 44.9017 9.54956 44.8638 9.9445C44.9026 10.3401 44.8304 10.7388 44.6551 11.0956C44.4799 11.4524 44.2087 11.7533 43.8719 11.9645C43.5362 12.1746 43.1483 12.286 42.7523 12.286C42.3564 12.286 41.9685 12.1746 41.6329 11.9645C41.2962 11.7532 41.0252 11.4522 40.8501 11.0954C40.6751 10.7386 40.603 10.34 40.6419 9.9445ZM43.9549 9.9445C43.9549 8.9685 43.5189 8.3975 42.7549 8.3975C41.9859 8.3975 41.5549 8.9685 41.5549 9.9445C41.5549 10.9285 41.9859 11.4945 42.7549 11.4945C43.5189 11.4945 43.9549 10.9245 43.9549 9.9445ZM50.4759 12.1985H49.5599L48.6339 8.8815H48.5639L47.6439 12.1985H46.7349L45.5019 7.6955H46.3979L47.1999 11.1315H47.2659L48.1859 7.6955H49.0329L49.9529 11.1315H50.0229L50.8218 7.6955H51.7049L50.4759 12.1985ZM52.7429 7.6955H53.5928V8.4105H53.6599C53.7711 8.1544 53.9595 7.93943 54.1989 7.79565C54.4382 7.65186 54.7165 7.58643 54.9949 7.6085C55.4369 7.5755 55.8689 7.7455 56.1698 8.0715C56.4718 8.3965 56.6098 8.8425 56.5448 9.2835V12.1985H55.6609V9.5065C55.6609 8.7825 55.3489 8.4225 54.6949 8.4225C54.3959 8.4085 54.1049 8.5265 53.8999 8.7465C53.6949 8.9665 53.5949 9.2645 53.6259 9.5635V12.1985H52.7429V7.6955ZM57.9529 5.9375H58.8358V12.1975H57.9529V5.9375ZM60.0639 9.9445C60.026 9.54956 60.0988 9.15188 60.2742 8.796C60.4496 8.44012 60.7206 8.14008 61.0569 7.9295C61.3922 7.71983 61.7798 7.60865 62.1754 7.60865C62.5709 7.60865 62.9585 7.71983 63.2938 7.9295C63.6301 8.14008 63.9011 8.44012 64.0765 8.796C64.2519 9.15188 64.3247 9.54956 64.2869 9.9445C64.3256 10.3401 64.2534 10.7388 64.0781 11.0956C63.9029 11.4524 63.6316 11.7533 63.2948 11.9645C62.9592 12.1746 62.5713 12.286 62.1754 12.286C61.7794 12.286 61.3915 12.1746 61.0559 11.9645C60.7191 11.7533 60.4478 11.4524 60.2726 11.0956C60.0973 10.7388 60.0251 10.3401 60.0639 9.9445ZM63.3778 9.9445C63.3778 8.9685 62.9418 8.3975 62.1768 8.3975C61.4088 8.3975 60.9769 8.9685 60.9769 9.9445C60.9769 10.9285 61.4088 11.4945 62.1768 11.4945C62.9418 11.4945 63.3778 10.9245 63.3778 9.9445ZM65.2169 10.9245C65.2169 10.1145 65.8169 9.6465 66.8819 9.5805L68.0939 9.5105V9.1205C68.0939 8.6455 67.7819 8.3765 67.1779 8.3765C66.6849 8.3765 66.3429 8.5585 66.2449 8.8765H65.3899C65.4799 8.1035 66.2029 7.6065 67.2189 7.6065C68.3409 7.6065 68.9739 8.1695 68.9739 9.1205V12.1975H68.1239V11.5645H68.0539C67.9126 11.7911 67.7136 11.9761 67.4772 12.1003C67.2408 12.2246 66.9756 12.2837 66.7089 12.2715C66.3288 12.3115 65.9499 12.1875 65.6659 11.9315C65.5247 11.8041 65.4118 11.6486 65.3343 11.4751C65.2568 11.3015 65.2165 11.1136 65.2159 10.9235L65.2169 10.9245ZM68.0939 10.5405V10.1635L67.0009 10.2335C66.3848 10.2755 66.1049 10.4865 66.1049 10.8835C66.1049 11.2885 66.4548 11.5235 66.9348 11.5235C67.2198 11.5535 67.5039 11.4645 67.7219 11.2795C67.9409 11.0935 68.0749 10.8275 68.0939 10.5395V10.5405ZM70.1349 9.9445C70.1349 8.5215 70.8618 7.6205 71.9928 7.6205C72.2732 7.60784 72.5513 7.67545 72.7945 7.81539C73.0377 7.95533 73.2359 8.16179 73.3658 8.4105H73.4319V5.9375H74.3159V12.1975H73.4689V11.4875H73.3989C73.2587 11.7344 73.0535 11.9382 72.8056 12.0766C72.5577 12.215 72.2766 12.2828 71.9928 12.2725C70.8548 12.2725 70.1349 11.3715 70.1349 9.9445ZM71.0478 9.9445C71.0478 10.8995 71.4949 11.4745 72.2439 11.4745C72.9879 11.4745 73.4488 10.8915 73.4488 9.9485C73.4488 9.0105 72.9839 8.4185 72.2439 8.4185C71.4999 8.4185 71.0478 8.9985 71.0478 9.9445ZM77.9699 9.9445C77.9321 9.54946 78.0051 9.15172 78.1807 8.79582C78.3562 8.43993 78.6274 8.13995 78.9639 7.9295C79.2991 7.72003 79.6865 7.60896 80.0819 7.60896C80.4772 7.60896 80.8646 7.72003 81.1999 7.9295C81.5361 8.14008 81.8071 8.44012 81.9825 8.796C82.1579 9.15188 82.2307 9.54956 82.1929 9.9445C82.2317 10.3401 82.1594 10.7388 81.9841 11.0956C81.8089 11.4524 81.5377 11.7533 81.2009 11.9645C80.8652 12.1746 80.4773 12.286 80.0814 12.286C79.6854 12.286 79.2975 12.1746 78.9619 11.9645C78.6252 11.7532 78.3542 11.4522 78.1791 11.0954C78.0041 10.7386 77.931 10.34 77.9699 9.9445ZM81.2839 9.9445C81.2839 8.9685 80.8479 8.3975 80.0839 8.3975C79.3149 8.3975 78.8839 8.9685 78.8839 9.9445C78.8839 10.9285 79.3149 11.4945 80.0839 11.4945C80.8479 11.4945 81.2839 10.9245 81.2839 9.9445ZM83.3779 7.6955H84.2279V8.4105H84.2949C84.4061 8.15422 84.5947 7.93914 84.8343 7.79534C85.0738 7.65154 85.3523 7.58621 85.6309 7.6085C86.0709 7.5755 86.5039 7.7455 86.8059 8.0715C87.1069 8.3965 87.2449 8.8425 87.1799 9.2835V12.1985H86.2969V9.5065C86.2969 8.7825 85.9839 8.4225 85.3309 8.4225C85.0309 8.4085 84.7409 8.5265 84.5359 8.7465C84.3299 8.9665 84.2299 9.2645 84.2619 9.5635V12.1985H83.3779V7.6955ZM92.1719 6.5745V7.7155H93.1419V8.4645H92.1719V10.7795C92.1719 11.2515 92.3649 11.4585 92.8049 11.4585C92.9179 11.4585 93.0299 11.4505 93.1419 11.4375V12.1775C92.9829 12.2065 92.8219 12.2215 92.6619 12.2235C91.6789 12.2235 91.2879 11.8755 91.2879 11.0075V8.4645H90.5779V7.7155H91.2879V6.5745H92.1719ZM94.3489 5.9375H95.2249V8.4185H95.2949C95.5349 7.8885 96.0808 7.5655 96.6589 7.6125C96.8758 7.60055 97.0928 7.63687 97.2941 7.71883C97.4953 7.80079 97.6759 7.92636 97.8229 8.0865C98.1208 8.4115 98.2598 8.8535 98.2009 9.2915V12.1985H97.3169V9.5105C97.3169 8.7905 96.9839 8.4265 96.3589 8.4265C96.2069 8.41407 96.0542 8.43512 95.9113 8.48817C95.7684 8.54121 95.6389 8.62496 95.5319 8.7335C95.3148 8.9535 95.2049 9.2595 95.2319 9.5685V12.1985H94.3489V5.9375ZM103.352 10.9825C103.233 11.3932 102.974 11.7489 102.619 11.9873C102.264 12.2256 101.837 12.3312 101.412 12.2855C101.117 12.2931 100.824 12.2362 100.553 12.1187C100.282 12.0013 100.04 11.8261 99.8439 11.6055C99.6466 11.3837 99.4997 11.1219 99.4134 10.8379C99.327 10.5539 99.3033 10.2545 99.3439 9.9605C99.3047 9.66572 99.3291 9.36598 99.4153 9.0814C99.5016 8.79681 99.6477 8.53397 99.8439 8.3105C100.039 8.08793 100.28 7.91001 100.55 7.78887C100.82 7.66773 101.113 7.60621 101.409 7.6085C102.654 7.6085 103.406 8.4645 103.406 9.8785V10.1885H100.245V10.2385C100.217 10.5725 100.33 10.9025 100.557 11.1485C100.784 11.3945 101.104 11.5325 101.437 11.5285C101.869 11.5805 102.29 11.3645 102.502 10.9825H103.352ZM100.245 9.5315H102.505C102.516 9.38055 102.496 9.22888 102.446 9.08615C102.395 8.94342 102.316 8.81276 102.212 8.7025C102.108 8.59271 101.983 8.50588 101.844 8.44766C101.705 8.38943 101.555 8.3611 101.404 8.3645C101.251 8.36271 101.099 8.39172 100.958 8.44978C100.816 8.50785 100.688 8.59379 100.58 8.7025C100.362 8.9225 100.24 9.2205 100.245 9.5315Z" fill="white"/>
</g>
</g>
</g>
</svg>
