<svg width="120" height="36" viewBox="0 0 120 36" fill="none" xmlns="http://www.w3.org/2000/svg">
<g id="Frame">
<g id="Group">
<path id="Vector" fill-rule="evenodd" clip-rule="evenodd" d="M5 1C3.80653 1 2.66193 1.47411 1.81802 2.31802C0.974106 3.16193 0.5 4.30653 0.5 5.5V30.5C0.5 31.6935 0.974106 32.8381 1.81802 33.682C2.66193 34.5259 3.80653 35 5 35H115C116.193 35 117.338 34.5259 118.182 33.682C119.026 32.8381 119.5 31.6935 119.5 30.5V5.5C119.5 4.30653 119.026 3.16193 118.182 2.31802C117.338 1.47411 116.193 1 115 1H5Z" fill="#0A0B09" stroke="#B0B2B7"/>
<path id="Vector_2" fill-rule="evenodd" clip-rule="evenodd" d="M42.15 9.46281C42.15 10.1958 41.929 10.7798 41.487 11.2148C40.986 11.7328 40.332 11.9918 39.528 11.9918C38.758 11.9918 38.104 11.7298 37.565 11.2038C37.027 10.6788 36.757 10.0268 36.757 9.24981C36.757 8.47181 37.027 7.82081 37.565 7.29581C38.104 6.76981 38.758 6.50781 39.528 6.50781C39.91 6.50781 40.276 6.58081 40.623 6.72781C40.97 6.87381 41.249 7.06881 41.457 7.31381L40.988 7.77581C40.635 7.36081 40.149 7.15281 39.528 7.15281C39.2588 7.14912 38.9916 7.19874 38.7417 7.2988C38.4918 7.39886 38.2642 7.54738 38.072 7.73581C37.662 8.12481 37.457 8.62981 37.457 9.24981C37.457 9.86981 37.662 10.3748 38.072 10.7638C38.482 11.1538 38.966 11.3458 39.528 11.3458C40.124 11.3458 40.62 11.1508 41.018 10.7608C41.276 10.5058 41.425 10.1518 41.465 9.69681H39.528V9.06681H42.113C42.138 9.20381 42.15 9.33581 42.15 9.46281Z" fill="#FFFFFE"/>
<path id="Vector_3" fill-rule="evenodd" clip-rule="evenodd" d="M42.15 9.46293H42.061C42.061 10.1789 41.848 10.7359 41.425 11.1529L41.424 11.1539C40.938 11.6539 40.313 11.9039 39.528 11.9039C38.778 11.9039 38.152 11.6519 37.628 11.1419C37.106 10.6319 36.848 10.0079 36.846 9.24993C36.847 8.49193 37.106 7.86793 37.628 7.35793C38.152 6.84793 38.778 6.59593 39.528 6.59493C39.898 6.59493 40.252 6.66593 40.588 6.80793C40.924 6.94993 41.191 7.13793 41.389 7.36993L41.457 7.31393L41.394 7.25193L40.925 7.71393L40.988 7.77593L41.056 7.71993C40.687 7.28393 40.168 7.06393 39.528 7.06593C38.9616 7.05939 38.4157 7.27767 38.01 7.67293C37.582 8.07693 37.367 8.60993 37.368 9.24993C37.368 9.88993 37.582 10.4219 38.01 10.8269C38.4155 11.2226 38.9614 11.4412 39.528 11.4349C40.143 11.4349 40.668 11.2299 41.081 10.8219C41.356 10.5499 41.513 10.1739 41.554 9.70493L41.562 9.60993H39.617V9.15393H42.113V9.06693L42.025 9.08193C42.049 9.21493 42.061 9.34093 42.061 9.46193H42.239C42.239 9.32993 42.226 9.19293 42.2 9.05193L42.187 8.97993H39.439V9.78493H41.465V9.69693L41.376 9.68993C41.336 10.1299 41.195 10.4619 40.955 10.6989C40.572 11.0729 40.104 11.2589 39.528 11.2589C38.988 11.2589 38.528 11.0749 38.133 10.7019C37.741 10.3279 37.547 9.85193 37.546 9.24993C37.546 8.64793 37.741 8.17193 38.133 7.79793C38.3172 7.61756 38.5353 7.47548 38.7747 7.37987C39.0142 7.28427 39.2702 7.23705 39.528 7.24093C40.13 7.24093 40.583 7.43793 40.92 7.83193L40.982 7.90493L41.52 7.37493L41.578 7.31993L41.525 7.25793C41.2877 6.9893 40.9908 6.78004 40.658 6.64693C40.3003 6.49624 39.916 6.41904 39.528 6.41993C38.738 6.41993 38.056 6.69193 37.503 7.23393C36.948 7.77393 36.668 8.45293 36.668 9.24993C36.668 10.0469 36.948 10.7259 37.503 11.2669C37.7689 11.5311 38.0852 11.7392 38.433 11.8788C38.7809 12.0185 39.1532 12.0869 39.528 12.0799C40.351 12.0799 41.034 11.8109 41.552 11.2759L41.487 11.2159L41.55 11.2769C42.01 10.8239 42.24 10.2119 42.24 9.46293H42.15ZM46.247 7.26993H43.817V8.93493H46.008V9.56493H43.818V11.2299H46.248V11.8749H43.133V6.62493H46.247V7.26993Z" fill="#FFFFFE"/>
<path id="Vector_4" fill-rule="evenodd" clip-rule="evenodd" d="M46.247 7.27011V7.18211H43.73V9.02211H45.92V9.47711H43.73V11.3171H46.16V11.7871H43.223V6.71211H46.159V7.27011H46.249H46.337V6.53711H43.045V11.9621H46.337V11.1421H43.907V9.65211H46.097V8.84711H43.907V7.35711H46.337V7.27011H46.247ZM49.137 11.8751H48.451V7.27011H46.961V6.62511H50.627V7.27011H49.137V11.8751Z" fill="#FFFFFE"/>
<path id="Vector_5" fill-rule="evenodd" clip-rule="evenodd" d="M49.1369 11.8751V11.7871H48.5399V7.18211H47.0499V6.71211H50.5379V7.18211H49.0479V11.8751H49.1369H49.2259V7.35711H50.7159V6.53711H46.8719V7.35711H48.3619V11.9621H49.2259V11.8751H49.1369ZM53.2779 11.8751H53.9639V6.62511H53.2779V11.8751Z" fill="#FFFFFE"/>
<path id="Vector_6" fill-rule="evenodd" clip-rule="evenodd" d="M53.278 11.8751H53.368V6.71211H53.874V11.7871H53.278V11.8751V11.9621H54.052V6.53711H53.189V11.9621H53.278V11.8751ZM57.003 11.8751H56.317V7.27011H54.827V6.62511H58.492V7.27011H57.002L57.003 11.8751Z" fill="#FFFFFE"/>
<path id="Vector_7" fill-rule="evenodd" clip-rule="evenodd" d="M57.003 11.8748V11.7868H56.406V7.18181H54.916V6.71181H58.404V7.18181H56.914V11.8748H57.003H57.092V7.35681H58.582V6.53681H54.739V7.35681H56.229V11.9618H57.092V11.8748H57.003ZM62.026 10.7568C62.421 11.1498 62.904 11.3468 63.475 11.3468C63.744 11.3526 64.0114 11.3033 64.2606 11.2018C64.5098 11.1004 64.7356 10.9489 64.924 10.7568C65.318 10.3628 65.516 9.86081 65.516 9.24981C65.516 8.63981 65.318 8.13681 64.924 7.74281C64.7355 7.5506 64.5095 7.39908 64.2601 7.2976C64.0107 7.19612 63.7432 7.14685 63.474 7.15281C62.904 7.15281 62.421 7.34881 62.026 7.74281C61.632 8.13681 61.434 8.63881 61.434 9.24981C61.434 9.85981 61.632 10.3628 62.026 10.7568ZM65.43 11.1968C64.907 11.7268 64.254 11.9918 63.475 11.9918C62.695 11.9918 62.044 11.7268 61.52 11.1968C60.996 10.6668 60.734 10.0168 60.734 9.24981C60.734 8.48281 60.996 7.83281 61.52 7.30281C62.044 6.77281 62.695 6.50781 63.475 6.50781C64.25 6.50781 64.9 6.77381 65.427 7.30681C65.953 7.83881 66.216 8.48681 66.216 9.24981C66.216 10.0168 65.954 10.6668 65.43 11.1968Z" fill="#FFFFFE"/>
<path id="Vector_8" fill-rule="evenodd" clip-rule="evenodd" d="M62.026 10.7569L61.963 10.8179C62.373 11.2279 62.883 11.4359 63.475 11.4349C64.067 11.4349 64.578 11.2269 64.987 10.8179C65.399 10.4089 65.607 9.87892 65.605 9.24992C65.606 8.61992 65.399 8.09092 64.987 7.68192C64.7902 7.48173 64.5546 7.32383 64.2946 7.2179C64.0346 7.11198 63.7557 7.06026 63.475 7.06592C62.883 7.06592 62.372 7.27192 61.963 7.68192C61.552 8.09192 61.344 8.62092 61.345 9.24992C61.344 9.87992 61.552 10.4099 61.963 10.8179L62.09 10.6949C61.712 10.3179 61.524 9.84192 61.523 9.24992C61.523 8.65792 61.712 8.18192 62.09 7.80392C62.2703 7.62042 62.4854 7.47579 62.7237 7.37896C62.9621 7.28213 63.2178 7.23515 63.475 7.24092C63.7321 7.23505 63.9877 7.28199 64.2259 7.37883C64.4641 7.47567 64.6799 7.62035 64.86 7.80392C65.238 8.18192 65.427 8.65792 65.428 9.24992C65.427 9.84192 65.238 10.3169 64.86 10.6949C64.6801 10.8789 64.4644 11.0239 64.2261 11.1211C63.9879 11.2183 63.7322 11.2655 63.475 11.2599C63.2177 11.2652 62.962 11.2178 62.7236 11.1206C62.4853 11.0235 62.2703 10.8786 62.09 10.6949L62.026 10.7569ZM65.43 11.1969L65.367 11.1359C64.857 11.6499 64.234 11.9039 63.475 11.9049C62.715 11.9039 62.092 11.6499 61.584 11.1349C61.076 10.6189 60.824 9.99792 60.824 9.24992C60.824 8.50192 61.076 7.87992 61.584 7.36392C62.092 6.84992 62.716 6.59592 63.474 6.59492C64.229 6.59592 64.851 6.85192 65.364 7.36792C65.874 7.88592 66.126 8.50792 66.127 9.24992C66.127 9.99792 65.875 10.6199 65.367 11.1359L65.494 11.2569C66.034 10.7129 66.306 10.0369 66.304 9.24992C66.311 8.87828 66.2425 8.50909 66.1028 8.16465C65.963 7.82021 65.7549 7.50767 65.491 7.24592C64.949 6.69592 64.271 6.41892 63.475 6.41992C62.675 6.41992 61.995 6.69592 61.456 7.24292C60.916 7.78792 60.644 8.46292 60.646 9.24992C60.644 10.0369 60.916 10.7129 61.456 11.2569C61.995 11.8049 62.675 12.0809 63.475 12.0799C64.275 12.0799 64.954 11.8049 65.494 11.2569L65.43 11.1969ZM67.178 11.8749V6.62492H68.012L70.604 10.7089H70.634L70.604 9.69692V6.62492H71.29V11.8749H70.574L67.864 7.59292H67.833L67.863 8.60492V11.8749H67.178Z" fill="#FFFFFE"/>
<path id="Vector_9" fill-rule="evenodd" clip-rule="evenodd" d="M67.1781 11.8751H67.2671V6.71211H67.9631L70.5551 10.7971H70.7251L70.6931 9.69711V6.71111H71.2011V11.7861H70.6241L67.9121 7.50411H67.7421L67.7741 8.60511V11.7861H67.1781V11.8741L67.1771 11.9611H67.9521V8.60311L67.9221 7.59111L67.8321 7.59311V7.68011H67.8631V7.59311L67.7881 7.63911L70.5251 11.9621H71.3791V6.53711H70.5161V9.70011L70.5451 10.7121L70.6341 10.7101V10.6231H70.6041V10.7101L70.6801 10.6641L68.0611 6.53811H67.0891V11.9631H67.1781V11.8761M95.0541 26.7501H96.7131V15.8121H95.0541V26.7501ZM109.994 19.7521L108.092 24.4941H108.036L106.062 19.7521H104.276L107.235 26.3801L105.548 30.0671H107.278L111.838 19.7521H109.994ZM100.588 25.5071C100.044 25.5071 99.2861 25.2411 99.2861 24.5791C99.2861 23.7351 100.23 23.4111 101.044 23.4111C101.774 23.4111 102.116 23.5661 102.56 23.7771C102.431 24.7901 101.545 25.5071 100.588 25.5071ZM100.788 19.5131C99.5871 19.5131 98.3431 20.0331 97.8281 21.1881L99.3001 21.7921C99.6151 21.1881 100.2 20.9901 100.816 20.9901C101.674 20.9901 102.546 21.4961 102.56 22.3981V22.5101C102.26 22.3401 101.617 22.0881 100.83 22.0881C99.2441 22.0881 97.6281 22.9461 97.6281 24.5501C97.6281 26.0141 98.9281 26.9571 100.387 26.9571C101.502 26.9571 102.117 26.4651 102.503 25.8871H102.56V26.7321H104.16V22.5391C104.16 20.5961 102.689 19.5131 100.788 19.5131ZM90.5371 21.0831H88.1771V17.3341H90.5371C91.0433 17.325 91.5324 17.5173 91.897 17.8687C92.2615 18.2201 92.4716 18.7019 92.4811 19.2081C92.4692 19.7137 92.2585 20.1942 91.8945 20.5452C91.5305 20.8963 91.0427 21.0896 90.5371 21.0831ZM90.4941 15.8121H86.5201V26.7501H88.1781V22.6061H90.4941C92.3321 22.6061 94.1401 21.2961 94.1401 19.2081C94.1401 17.1211 92.3321 15.8121 90.4941 15.8121ZM68.8221 25.5091C67.6761 25.5091 66.7171 24.5651 66.7171 23.2691C66.7171 21.9581 67.6771 20.9991 68.8221 20.9991C69.9541 20.9991 70.8411 21.9581 70.8411 23.2691C70.8411 24.5651 69.9541 25.5091 68.8221 25.5091ZM70.7261 20.3641H70.6691C70.2971 19.9281 69.5811 19.5331 68.6791 19.5331C66.7891 19.5331 65.0561 21.1671 65.0561 23.2681C65.0561 25.3541 66.7881 26.9761 68.6791 26.9761C69.5811 26.9761 70.2971 26.5811 70.6691 26.1301H70.7261V26.6651C70.7261 28.0901 69.9541 28.8511 68.7081 28.8511C67.6911 28.8511 67.0601 28.1311 66.8031 27.5251L65.3561 28.1181C65.7721 29.1051 66.8751 30.3161 68.7081 30.3161C70.6551 30.3161 72.3021 29.1891 72.3021 26.4401V19.7581H70.7261V20.3641ZM73.4481 26.7501H75.1091V15.8101H73.4481V26.7501ZM77.5581 23.1411C77.5427 22.8684 77.5819 22.5953 77.6733 22.3379C77.7646 22.0804 77.9064 21.8438 78.0903 21.6418C78.2742 21.4397 78.4965 21.2764 78.7442 21.1612C78.9919 21.0461 79.2601 20.9814 79.5331 20.9711C80.1931 20.9711 80.7511 21.2941 80.9371 21.7601L77.5581 23.1411ZM82.7131 21.9011C82.3981 21.0691 81.4381 19.5331 79.4761 19.5331C77.5291 19.5331 75.9111 21.0411 75.9111 23.2541C75.9111 25.3401 77.5151 26.9761 79.6621 26.9761C80.2825 26.9813 80.8946 26.8335 81.4442 26.5457C81.9938 26.2579 82.464 25.839 82.8131 25.3261L81.5241 24.4801C81.0951 25.1001 80.5081 25.5101 79.6621 25.5101C78.8181 25.5101 78.2161 25.1291 77.8291 24.3821L82.8841 22.3241L82.7131 21.9011ZM42.4391 20.6751V22.2531H46.2761C46.1621 23.1411 45.8611 23.7901 45.4041 24.2411C44.8441 24.7911 43.9711 25.3961 42.4391 25.3961C41.8859 25.4004 41.3373 25.2947 40.8253 25.0852C40.3132 24.8758 39.8479 24.5668 39.4562 24.176C39.0646 23.7853 38.7544 23.3207 38.5438 22.8092C38.3331 22.2976 38.2261 21.7493 38.2291 21.1961C38.2291 18.8701 40.0761 16.9961 42.4391 16.9961C43.7141 16.9961 44.6441 17.4891 45.3321 18.1231L46.4631 17.0091C45.5031 16.1071 44.2291 15.4161 42.4391 15.4161C39.2031 15.4161 36.4821 18.0101 36.4821 21.1961C36.4821 24.3821 39.2021 26.9761 42.4391 26.9761C44.1861 26.9761 45.5031 26.4121 46.5341 25.3541C47.5941 24.3111 47.9241 22.8461 47.9241 21.6611C47.9277 21.3304 47.8986 21.0001 47.8371 20.6751H42.4391ZM52.2871 25.5091C51.1411 25.5091 50.1531 24.5791 50.1531 23.2541C50.1531 21.9141 51.1411 20.9991 52.2871 20.9991C53.4321 20.9991 54.4201 21.9151 54.4201 23.2541C54.4201 24.5791 53.4321 25.5091 52.2871 25.5091ZM52.2871 19.5331C50.1961 19.5331 48.4921 21.0971 48.4921 23.2541C48.4921 25.3961 50.1961 26.9761 52.2871 26.9761C54.3771 26.9761 56.0821 25.3961 56.0821 23.2541C56.0821 21.0971 54.3781 19.5331 52.2871 19.5331ZM60.5651 25.5091C59.4201 25.5091 58.4311 24.5791 58.4311 23.2541C58.4311 21.9141 59.4201 20.9991 60.5651 20.9991C61.7111 20.9991 62.6991 21.9151 62.6991 23.2541C62.6991 24.5791 61.7111 25.5091 60.5651 25.5091ZM60.5651 19.5331C58.4751 19.5331 56.7711 21.0971 56.7711 23.2541C56.7711 25.3961 58.4751 26.9761 60.5651 26.9761C62.6561 26.9761 64.3601 25.3961 64.3601 23.2541C64.3601 21.0971 62.6561 19.5331 60.5651 19.5331Z" fill="#FFFFFE"/>
<path id="Vector_10" fill-rule="evenodd" clip-rule="evenodd" d="M9.27599 7.10402C9.01599 7.37402 8.86499 7.79002 8.86499 8.33202V27.668C8.86499 28.209 9.01699 28.627 9.27499 28.896L9.34099 28.959L20.345 18.128V17.872L9.33999 7.04102L9.27499 7.10402" fill="#60C2E3"/>
<g id="Group_2">
<g id="Mask group">
<mask id="mask0_7458_16872" style="mask-type:luminance" maskUnits="userSpaceOnUse" x="20" y="14" width="10" height="8">
<g id="Group_3">
<g id="Group_4">
<path id="a" fill-rule="evenodd" clip-rule="evenodd" d="M24.012 21.7397L20.345 18.1277V17.8717L24.014 14.2617L28.442 16.7367C29.683 17.4317 29.683 18.5667 28.442 19.2617L24.096 21.6917L24.012 21.7397Z" fill="white"/>
</g>
</g>
</mask>
<g mask="url(#mask0_7458_16872)">
<path id="Vector_11" fill-rule="evenodd" clip-rule="evenodd" d="M24.012 21.7397L20.345 18.1277V17.8717L24.014 14.2617L28.442 16.7367C29.683 17.4317 29.683 18.5667 28.442 19.2617L24.096 21.6917L24.012 21.7397Z" fill="url(#paint0_linear_7458_16872)"/>
</g>
</g>
</g>
<g id="Group_5">
<g id="Mask group_2">
<mask id="mask1_7458_16872" style="mask-type:luminance" maskUnits="userSpaceOnUse" x="9" y="18" width="16" height="12">
<g id="Group_6">
<g id="Group_7">
<path id="d" fill-rule="evenodd" clip-rule="evenodd" d="M24.096 21.692L20.345 18L9.27502 28.896C9.68502 29.322 10.361 29.375 11.122 28.95L24.096 21.693" fill="white"/>
</g>
</g>
</mask>
<g mask="url(#mask1_7458_16872)">
<path id="Vector_12" fill-rule="evenodd" clip-rule="evenodd" d="M24.096 21.692L20.345 18L9.27502 28.896C9.68502 29.322 10.361 29.375 11.122 28.95L24.096 21.693" fill="url(#paint1_linear_7458_16872)"/>
</g>
</g>
</g>
<g id="Group_8">
<g id="Mask group_3">
<mask id="mask2_7458_16872" style="mask-type:luminance" maskUnits="userSpaceOnUse" x="9" y="6" width="16" height="12">
<g id="Group_9">
<g id="Group_10">
<path id="g" fill-rule="evenodd" clip-rule="evenodd" d="M24.0959 14.3071L11.1219 7.04914C10.3609 6.62414 9.68488 6.67714 9.27588 7.10414L20.3449 18.0001L24.0959 14.3071Z" fill="white"/>
</g>
</g>
</mask>
<g mask="url(#mask2_7458_16872)">
<path id="Vector_13" fill-rule="evenodd" clip-rule="evenodd" d="M24.0959 14.3071L11.1219 7.04914C10.3609 6.62414 9.68488 6.67714 9.27588 7.10414L20.3449 18.0001L24.0959 14.3071Z" fill="url(#paint2_linear_7458_16872)"/>
</g>
</g>
</g>
</g>
</g>
<defs>
<linearGradient id="paint0_linear_7458_16872" x1="749.318" y1="388.147" x2="-1399.78" y2="388.147" gradientUnits="userSpaceOnUse">
<stop stop-color="#EC942D"/>
<stop offset="1" stop-color="#FBDE1E"/>
</linearGradient>
<linearGradient id="paint1_linear_7458_16872" x1="1287.51" y1="218.649" x2="-94.3582" y2="2582.21" gradientUnits="userSpaceOnUse">
<stop stop-color="#DD4245"/>
<stop offset="1" stop-color="#B72162"/>
</linearGradient>
<linearGradient id="paint2_linear_7458_16872" x1="-742.824" y1="-1068.2" x2="385.623" y2="861.605" gradientUnits="userSpaceOnUse">
<stop stop-color="#6CB966"/>
<stop offset="1" stop-color="#299567"/>
</linearGradient>
</defs>
</svg>
