<svg width="24" height="24" viewBox="0 0 24 24" fill="none" xmlns="http://www.w3.org/2000/svg">
<rect width="24" height="24" rx="12" fill="#111111"/>
<path d="M15.6334 13.6667C15.7001 13.1167 15.7501 12.5667 15.7501 12.0001C15.7501 11.4334 15.7001 10.8834 15.6334 10.3334H18.4501C18.5834 10.8667 18.6667 11.4251 18.6667 12.0001C18.6667 12.5751 18.5834 13.1334 18.4501 13.6667M14.1584 18.3001C14.6584 17.3751 15.0417 16.3751 15.3084 15.3334H17.7667C16.9594 16.7236 15.6785 17.7767 14.1584 18.3001ZM13.9501 13.6667H10.0501C9.96675 13.1167 9.91675 12.5667 9.91675 12.0001C9.91675 11.4334 9.96675 10.8751 10.0501 10.3334H13.9501C14.0251 10.8751 14.0834 11.4334 14.0834 12.0001C14.0834 12.5667 14.0251 13.1167 13.9501 13.6667ZM12.0001 18.6334C11.3084 17.6334 10.7501 16.5251 10.4084 15.3334H13.5917C13.2501 16.5251 12.6917 17.6334 12.0001 18.6334ZM8.66675 8.66675H6.23341C7.03228 7.27261 8.3123 6.21778 9.83341 5.70008C9.33341 6.62508 8.95841 7.62508 8.66675 8.66675ZM6.23341 15.3334H8.66675C8.95841 16.3751 9.33341 17.3751 9.83341 18.3001C8.3153 17.777 7.03699 16.7236 6.23341 15.3334ZM5.55008 13.6667C5.41675 13.1334 5.33341 12.5751 5.33341 12.0001C5.33341 11.4251 5.41675 10.8667 5.55008 10.3334H8.36675C8.30008 10.8834 8.25008 11.4334 8.25008 12.0001C8.25008 12.5667 8.30008 13.1167 8.36675 13.6667M12.0001 5.35841C12.6917 6.35841 13.2501 7.47508 13.5917 8.66675H10.4084C10.7501 7.47508 11.3084 6.35841 12.0001 5.35841ZM17.7667 8.66675H15.3084C15.0472 7.63476 14.661 6.6385 14.1584 5.70008C15.6917 6.22508 16.9667 7.28341 17.7667 8.66675ZM12.0001 3.66675C7.39175 3.66675 3.66675 7.41675 3.66675 12.0001C3.66675 14.2102 4.54472 16.3298 6.10752 17.8926C6.88135 18.6665 7.80001 19.2803 8.81105 19.6991C9.8221 20.1179 10.9057 20.3334 12.0001 20.3334C14.2102 20.3334 16.3298 19.4554 17.8926 17.8926C19.4554 16.3298 20.3334 14.2102 20.3334 12.0001C20.3334 10.9057 20.1179 9.8221 19.6991 8.81105C19.2803 7.80001 18.6665 6.88135 17.8926 6.10752C17.1188 5.3337 16.2002 4.71987 15.1891 4.30109C14.1781 3.8823 13.0944 3.66675 12.0001 3.66675Z" fill="white"/>
</svg>
