<svg width="20" height="23" viewBox="0 0 20 23" fill="none" xmlns="http://www.w3.org/2000/svg">
<g id="headphones">
<path id="combo shape" fill-rule="evenodd" clip-rule="evenodd" d="M10 2.25C5.52436 2.25 1.88113 5.81395 1.75346 10.2587C2.25789 9.93665 2.85715 9.75 3.5 9.75C5.29493 9.75 6.75 11.2051 6.75 13V15C6.75 16.7949 5.29493 18.25 3.5 18.25C1.70507 18.25 0.25 16.7949 0.25 15V13.25V13V10.5C0.25 5.11522 4.61522 0.75 10 0.75C15.3848 0.75 19.75 5.11522 19.75 10.5V13V13.25V13.5V15V15.5C19.75 19.2279 16.7279 22.25 13 22.25H10C9.58579 22.25 9.25 21.9142 9.25 21.5C9.25 21.0858 9.58579 20.75 10 20.75H13C14.9676 20.75 16.6824 19.6676 17.5814 18.0658C17.2431 18.1851 16.8791 18.25 16.5 18.25C14.7051 18.25 13.25 16.7949 13.25 15V13C13.25 11.2051 14.7051 9.75 16.5 9.75C17.1428 9.75 17.7421 9.93665 18.2465 10.2587C18.1189 5.81395 14.4756 2.25 10 2.25Z" fill="#131316"/>
</g>
</svg>
