<svg width="31" height="30" viewBox="0 0 31 30" fill="none" xmlns="http://www.w3.org/2000/svg">
<path d="M3 11.25V8.125C3 5.0125 5.5125 2.5 8.625 2.5H11.75" stroke="#7DB7FF" stroke-width="3" stroke-linecap="round" stroke-linejoin="round"/>
<path d="M19.25 2.5H22.375C25.4875 2.5 28 5.0125 28 8.125V11.25" stroke="#7DB7FF" stroke-width="3" stroke-linecap="round" stroke-linejoin="round"/>
<path d="M28 20V21.875C28 24.9875 25.4875 27.5 22.375 27.5H20.5" stroke="#7DB7FF" stroke-width="3" stroke-linecap="round" stroke-linejoin="round"/>
<path d="M11.75 27.5H8.625C5.5125 27.5 3 24.9875 3 21.875V18.75" stroke="#7DB7FF" stroke-width="3" stroke-linecap="round" stroke-linejoin="round"/>
<path d="M11.125 13.75C12.8509 13.75 14.25 12.3509 14.25 10.625C14.25 8.89911 12.8509 7.5 11.125 7.5C9.39911 7.5 8 8.89911 8 10.625C8 12.3509 9.39911 13.75 11.125 13.75Z" stroke="#7DB7FF" stroke-width="3" stroke-linecap="round" stroke-linejoin="round"/>
<path d="M9.875 22.5C10.9105 22.5 11.75 21.6605 11.75 20.625C11.75 19.5895 10.9105 18.75 9.875 18.75C8.83947 18.75 8 19.5895 8 20.625C8 21.6605 8.83947 22.5 9.875 22.5Z" stroke="#7DB7FF" stroke-width="3" stroke-linecap="round" stroke-linejoin="round"/>
<path d="M21.125 11.25C22.1605 11.25 23 10.4105 23 9.375C23 8.33947 22.1605 7.5 21.125 7.5C20.0895 7.5 19.25 8.33947 19.25 9.375C19.25 10.4105 20.0895 11.25 21.125 11.25Z" stroke="#7DB7FF" stroke-width="3" stroke-linecap="round" stroke-linejoin="round"/>
<path d="M19.875 22.5C21.6009 22.5 23 21.1009 23 19.375C23 17.6491 21.6009 16.25 19.875 16.25C18.1491 16.25 16.75 17.6491 16.75 19.375C16.75 21.1009 18.1491 22.5 19.875 22.5Z" stroke="#7DB7FF" stroke-width="3" stroke-linecap="round" stroke-linejoin="round"/>
</svg>
