<svg width="18" height="18" viewBox="0 0 18 18" fill="none" xmlns="http://www.w3.org/2000/svg">
<path d="M7.51562 13.1404C7.86063 13.5829 8.40062 13.8754 9.00062 13.8754C10.0356 13.8754 10.8756 13.0354 10.8756 12.0004C10.8756 11.5729 10.7331 11.1754 10.4931 10.8604" stroke="#292D32" stroke-width="1.5" stroke-linecap="round" stroke-linejoin="round"/>
<path d="M2.115 15.6C1.6575 15.03 1.5 14.1225 1.5 12.75V11.25C1.5 8.25 2.25 7.5 5.25 7.5H12.75C13.02 7.5 13.2675 7.5075 13.5 7.5225C15.8775 7.6575 16.5 8.52 16.5 11.25V12.75C16.5 15.75 15.75 16.5 12.75 16.5H5.25C4.98 16.5 4.7325 16.4925 4.5 16.4775" stroke="#292D32" stroke-width="1.5" stroke-linecap="round" stroke-linejoin="round"/>
<path d="M4.5 7.5V6C4.5 3.5175 5.25 1.5 9 1.5C12.1125 1.5 13.155 2.535 13.425 4.17" stroke="#292D32" stroke-width="1.5" stroke-linecap="round" stroke-linejoin="round"/>
<path d="M16.5 1.5L1.5 16.5" stroke="#292D32" stroke-width="1.5" stroke-linecap="round" stroke-linejoin="round"/>
</svg>
