<?xml version="1.0" encoding="UTF-8"?>
<svg id="Layer_1" xmlns="http://www.w3.org/2000/svg" version="1.1" viewBox="0 0 595.3 595.3">
  <!-- Generator: Adobe Illustrator 29.0.0, SVG Export Plug-In . SVG Version: 2.1.0 Build 186)  -->
  <defs>
    <style>
      .st0 {
        fill: #222221;
      }
    </style>
  </defs>
  <path class="st0" d="M535.6,515.9c-15.1,0-26.5-11.3-26.5-26.3s11.4-26.3,26.5-26.3,26.4,11.2,26.4,26.3-11.4,26.3-26.4,26.3M535.6,520.2c17.8,0,31.1-13.2,31.1-30.6s-13.3-30.6-31.1-30.6-31.1,13.2-31.1,30.6,13.2,30.6,31.1,30.6M433.9,489.4v-25.2h18.2c8.7,0,14,5.2,14,12.5s-5.3,12.7-14,12.7h-18.2ZM470.8,476.7c0-10.2-7.3-16.6-19.7-16.6h-21.9v59h4.6v-25.7h18.4l13.3,25.7h4.4l.3-.5-13.3-25.8c8.8-1.7,13.8-7.6,13.8-16.1M374.5,491h-17.1v-26.8h17.1c8.6,0,13.9,5.2,13.9,13.4s-5.3,13.3-13.9,13.3M373.4,460.1h-20.6v59h4.6v-24.1h16c12.3,0,19.7-6.5,19.7-17.4s-7.2-17.4-19.7-17.4M315.5,464.2v-4.1h-38.2v59h38.2v-4.1h-33.5v-23.7h26.7v-4.1h-26.7v-23h33.5ZM209,515h-17v-50.8h17c15.9,0,25.7,10.2,25.7,25.4s-9.8,25.4-25.7,25.4M209,460.1h-21.7v59h21.7c18.7,0,30.4-11.8,30.4-29.6s-11.7-29.4-30.4-29.4M151.2,460.6l-.2-.5h-4.6l-20.2,32.5-20.3-32.5h-4.9l-.2.5,23,36v22.5h4.6v-22.5l22.8-36ZM32.8,489.4v-25.2h18.2c8.7,0,14,5.2,14,12.5s-5.3,12.7-14,12.7h-18.2ZM69.7,476.7c0-10.2-7.3-16.6-19.7-16.6h-21.9v59h4.6v-25.7h18.4l13.3,25.7h4.4l.3-.5-13.3-25.8c8.8-1.7,13.8-7.6,13.8-16.1"/>
  <path class="st0" d="M397.8,287.7c-32.8-2-62.3-16.2-84.1-38.1,40.5-.4,74.3-29.1,82.7-67.1,8.8,16,13.7,34.4,13.7,54s-4.5,35.8-12.3,51.2M275.4,347.4v-67.8c22.6,24.1,51.7,42,84.5,50.8-18,12.1-39.6,19.1-62.8,19.1s-14.7-.7-21.7-2.1M184,236.5c0-35.9,16.8-67.8,42.9-88.6v177.1c-26.1-20.7-42.9-52.7-42.9-88.6M276.2,170.3c-.2-2.5-.4-5-.5-7.6.7-19.9,17.1-35.8,37.1-35.8s37.2,16.7,37.2,37.2-16.7,37.2-37.2,37.2-33.7-13.4-36.6-30.9M297.1,75c-89,0-161.5,72.4-161.5,161.5s72.4,161.5,161.5,161.5,161.5-72.4,161.5-161.5-72.4-161.5-161.5-161.5"/>
  <path class="st0" d="M473.1,104.3v-7.8h5.1c3.3,0,4.8,1.5,4.8,3.9s-1.5,3.9-4.8,3.9h-5.1ZM470.4,115.9h2.7v-9h5.7l4.8,9h3l-5.1-9.6s4.2-1.5,4.2-6-2.9-6.6-7.5-6.6h-7.8v22.1ZM477.6,123.7c-10.8,0-18.8-8.1-18.8-18.8s8.1-18.8,18.8-18.8,18.8,8.1,18.8,18.8-8.1,18.8-18.8,18.8M456.1,104.9c0,11.9,9.6,21.5,21.5,21.5s21.5-9.5,21.5-21.5-9.5-21.5-21.5-21.5-21.5,9.6-21.5,21.5"/>
</svg>