<?xml version="1.0" encoding="UTF-8"?>
<svg version="1.1" xmlns="http://www.w3.org/2000/svg" width="3508" height="2480">
<path d="M0 0 C1157.64 0 2315.28 0 3508 0 C3508 818.4 3508 1636.8 3508 2480 C2350.36 2480 1192.72 2480 0 2480 C0 1661.6 0 843.2 0 0 Z " fill="#FEFEFE" transform="translate(0,0)"/>
<path d="M0 0 C1.83763916 0.00090637 1.83763916 0.00090637 3.71240234 0.00183105 C38.2183928 0.04804645 72.66155754 1.97044789 106.5 9.1875 C108.16920297 9.5263761 109.83847949 9.86489005 111.5078125 10.203125 C133.07332839 14.65618702 154.62243631 20.1628652 175.5 27.1875 C176.2213916 27.42758789 176.9427832 27.66767578 177.68603516 27.91503906 C224.96306194 43.72351129 270.5376675 65.69435684 311.5 94.1875 C312.5194873 94.89253662 312.5194873 94.89253662 313.55957031 95.61181641 C343.5726984 116.40730286 371.25470801 139.94476756 397.125 165.6875 C397.76356934 166.32139648 398.40213867 166.95529297 399.06005859 167.60839844 C402.83061225 171.39186155 406.40542217 175.29738384 409.89697266 179.33935547 C412.00714314 181.77218985 414.1898054 184.13454524 416.375 186.5 C421.2919433 191.90420795 425.96088689 197.46412579 430.5 203.1875 C431.01578613 203.83605957 431.53157227 204.48461914 432.06298828 205.15283203 C440.5910013 215.90704308 448.74446618 226.86380142 456.5 238.1875 C456.99209961 238.90373535 457.48419922 239.6199707 457.99121094 240.35791016 C470.70748169 258.93591013 481.99080445 278.28522373 492.5 298.1875 C492.95729492 299.05004395 493.41458984 299.91258789 493.88574219 300.80126953 C506.5847637 324.93306742 516.76469056 350.37716758 525.5 376.1875 C525.7789209 377.01040527 526.0578418 377.83331055 526.34521484 378.68115234 C542.54030874 427.00667313 552.62058353 479.10406679 552.66796875 530.16796875 C552.67129715 531.46027908 552.67462555 532.75258942 552.67805481 534.08406067 C552.68398683 536.80596755 552.6859013 539.52784299 552.68530273 542.24975586 C552.68522218 544.97671239 552.69206192 547.70349839 552.70581055 550.43041992 C552.93020917 595.66654252 547.80247547 640.34429212 536.5 684.1875 C536.18546875 685.46238281 535.8709375 686.73726562 535.546875 688.05078125 C526.07488871 725.37901812 512.38181298 761.88791648 494.60742188 796.05078125 C493.31323182 798.54786048 492.0401828 801.05534514 490.765625 803.5625 C480.87620557 822.90054401 469.80316116 841.29380797 457.5 859.1875 C456.99968262 859.91598145 456.49936523 860.64446289 455.98388672 861.39501953 C449.16817675 871.27790853 442.04316122 880.84918336 434.5 890.1875 C433.75234375 891.11820313 433.0046875 892.04890625 432.234375 893.0078125 C428.12043533 898.08364454 423.92213591 903.08723421 419.6875 908.0625 C419.25058838 908.57876953 418.81367676 909.09503906 418.36352539 909.62695312 C409.0879306 920.45966894 399.16844278 930.68480917 389.07128906 940.74658203 C387.2338424 942.57860995 385.4018835 944.41600605 383.5703125 946.25390625 C377.71608351 952.1117393 371.83859778 957.84906104 365.5 963.1875 C364.41629085 964.13610738 363.33421546 965.08658494 362.25390625 966.0390625 C353.30964984 973.84007855 344.00058215 981.07950701 334.5 988.1875 C333.88044434 988.65510742 333.26088867 989.12271484 332.62255859 989.60449219 C258.34405108 1045.63101781 167.15136521 1084.27384547 61.5 1096.1875 C60.0342685 1096.32047653 58.56861536 1096.45431856 57.10302734 1096.58886719 C23.10887583 1099.68281125 -10.46880722 1100.32121465 -44.5 1097.1875 C-45.16650574 1097.1266925 -45.83301147 1097.06588501 -46.51971436 1097.00323486 C-112.83999718 1090.89538078 -176.4964126 1073.0516547 -236.5 1044.1875 C-237.34739746 1043.78499023 -238.19479492 1043.38248047 -239.06787109 1042.96777344 C-276.98496436 1024.89935144 -313.66849283 1001.21091011 -345.49609375 973.7578125 C-348.24694682 971.40402665 -351.04580476 969.13335614 -353.875 966.875 C-363.07490681 959.38827231 -371.67045043 951.12359115 -379.97949219 942.66625977 C-381.59848988 941.03651819 -381.59848988 941.03651819 -384 939.25 C-386.83754097 936.9090287 -389.04164273 934.3098107 -391.421875 931.515625 C-393.80107246 928.8502083 -396.32036047 926.37255262 -398.875 923.875 C-403.37599554 919.45383112 -407.40756217 914.78241749 -411.3359375 909.84765625 C-413.38962294 907.3231801 -415.53359879 904.94412384 -417.75 902.5625 C-423.51989337 896.21261735 -428.62571105 889.36943763 -433.76318359 882.50683594 C-434.9190328 880.96332069 -436.07820623 879.42228907 -437.24072266 877.88378906 C-446.22089062 865.99554211 -454.59582287 853.81678428 -462.5 841.1875 C-462.99177734 840.40358887 -463.48355469 839.61967773 -463.99023438 838.81201172 C-476.67276917 818.46323176 -488.07828897 797.29598549 -497.57519531 775.27783203 C-498.91720865 772.24448509 -500.4069514 769.28650456 -501.875 766.3125 C-511.31099983 746.17069061 -518.03149393 724.42083633 -524.5 703.1875 C-524.77150879 702.30900391 -525.04301758 701.43050781 -525.32275391 700.52539062 C-529.70769969 686.25738916 -532.87899912 671.79168387 -535.875 657.17529297 C-536.41046056 654.61554051 -536.9843409 652.07007405 -537.578125 649.5234375 C-538.6881986 644.5767144 -539.34991735 639.58727209 -540 634.5625 C-540.25908126 632.59895394 -540.51819587 630.63541227 -540.77734375 628.671875 C-540.90093262 627.72634766 -541.02452148 626.78082031 -541.15185547 625.80664062 C-541.44194067 623.62428859 -541.75171863 621.44456546 -542.06640625 619.265625 C-545.36623688 596.29672516 -545.90496061 573.34582104 -545.875 550.1875 C-545.8749081 549.41912182 -545.87481621 548.65074364 -545.87472153 547.85908127 C-545.87100927 523.80575757 -545.2333156 500.05238159 -541.78778076 476.20916748 C-541.50458501 474.2197098 -541.24259132 472.22727117 -540.98095703 470.23486328 C-538.79787642 453.67406828 -535.34922185 437.4890049 -531.5 421.25 C-531.1860025 419.9226181 -531.1860025 419.9226181 -530.86566162 418.56842041 C-528.17723675 407.28534606 -525.10611676 396.21052178 -521.5 385.1875 C-521.16532715 384.14150635 -520.8306543 383.0955127 -520.48583984 382.01782227 C-511.70426686 354.63850577 -500.86284944 327.80083337 -487.58496094 302.27490234 C-486.35203753 299.90282874 -485.13361519 297.52350529 -483.9140625 295.14453125 C-465.65923707 259.70640853 -443.21271203 226.63816517 -417.5 196.1875 C-416.49346842 194.98439271 -415.48695721 193.78126837 -414.48046875 192.578125 C-403.77628441 179.8603176 -392.28863819 167.89915396 -380.5625 156.125 C-379.78189209 155.33971924 -379.00128418 154.55443848 -378.19702148 153.74536133 C-374.0231107 149.58303608 -369.76495275 145.5856572 -365.29760742 141.73999023 C-362.85590066 139.63122841 -360.49369924 137.44013576 -358.125 135.25 C-353.08403011 130.6584993 -347.87049949 126.38441712 -342.5 122.1875 C-341.47519531 121.36765625 -340.45039062 120.5478125 -339.39453125 119.703125 C-286.42021286 77.40441672 -225.29667856 44.25610692 -160.5 24.1875 C-159.78360352 23.96175293 -159.06720703 23.73600586 -158.32910156 23.50341797 C-125.83195603 13.36675903 -92.20317764 6.91486761 -58.4375 3 C-57.70341919 2.91487152 -56.96933838 2.82974304 -56.2130127 2.74203491 C-37.43840158 0.58966776 -18.8927563 -0.0171337 0 0 Z " fill="#000000" transform="translate(1750.5,482.8125)"/>
<path d="M0 0 C0 198.33 0 396.66 0 601 C-4.82370351 597.38222237 -9.15326446 594.10155998 -13.5 590.0625 C-16.55457508 587.23333784 -19.63175818 584.44831029 -22.78515625 581.73046875 C-27.34952295 577.74836313 -31.65748286 573.53412289 -35.9375 569.25 C-36.72946777 568.45795166 -37.52143555 567.66590332 -38.33740234 566.84985352 C-43.25286053 561.886284 -47.84351615 556.85885843 -52.14453125 551.3515625 C-53.94474867 549.07002379 -55.84174742 546.94714883 -57.8125 544.8125 C-72.28100958 528.65361009 -84.29232641 509.81223897 -95 491 C-95.48581543 490.14728516 -95.97163086 489.29457031 -96.47216797 488.41601562 C-121.0326129 444.96466522 -137.28997523 396.65919097 -143 347 C-143.08506805 346.31121765 -143.17013611 345.6224353 -143.25778198 344.91278076 C-145.04593944 330.30966015 -145.3602624 315.82652985 -145.3125 301.125 C-145.31067719 299.95979828 -145.30885437 298.79459656 -145.30697632 297.59408569 C-145.23562131 270.46454065 -142.81959291 244.5459469 -137 218 C-136.77973145 216.97100586 -136.55946289 215.94201172 -136.33251953 214.88183594 C-124.11340453 158.39172255 -97.89496526 106.0988025 -62 61 C-61.27683594 60.08347656 -60.55367187 59.16695312 -59.80859375 58.22265625 C-54.34147887 51.40587795 -48.48552929 45.01099259 -42.51855469 38.63623047 C-41.0204525 37.02203741 -39.54229732 35.39192303 -38.0703125 33.75390625 C-33.67299887 28.86657605 -29.27710546 24.13972618 -24.2265625 19.91015625 C-21.82586986 17.85061467 -19.5230367 15.70637237 -17.21533203 13.54394531 C-2.75336246 0 -2.75336246 0 0 0 Z " fill="#FEFEFE" transform="translate(1515,732)"/>
<path d="M0 0 C0.66 0 1.32 0 2 0 C23.42814619 41.02217399 37.49218427 83.54901361 44.1875 129.3125 C44.35459473 130.44453857 44.52168945 131.57657715 44.69384766 132.74291992 C47.06215172 149.57836665 47.23840821 166.34242243 47.25 183.3125 C47.25133942 184.47029968 47.25267883 185.62809937 47.25405884 186.82098389 C47.24988734 203.43247978 46.76427221 219.58834194 44 236 C43.75504365 237.63239941 43.51278467 239.26520623 43.2734375 240.8984375 C41.80291404 250.61707634 39.74594283 260.19700383 37.51611328 269.76660156 C36.99627475 272.01612042 36.49461916 274.2691085 35.99609375 276.5234375 C34.41474242 283.58453516 32.72025548 290.47678563 30.02734375 297.21484375 C29.12612405 299.65807435 28.38519694 302.07791035 27.6640625 304.578125 C25.92082821 310.4605209 23.72539185 316.12316833 21.4375 321.8125 C21.00711426 322.88749756 20.57672852 323.96249512 20.13330078 325.07006836 C15.86124562 335.59238315 11.04424148 345.82879796 6 356 C-3.87072273 356.23975153 -13.27688617 355.59168543 -23.0625 354.25 C-23.73464539 354.16007782 -24.40679077 354.07015564 -25.0993042 353.97750854 C-49.83479161 350.66646193 -74.17929763 345.46911356 -98 338 C-98.76119141 337.76619629 -99.52238281 337.53239258 -100.30664062 337.29150391 C-148.67024744 322.34293187 -195.19745942 298.27753913 -235 267 C-236.09707418 266.15679423 -237.1947655 265.31439098 -238.29296875 264.47265625 C-250.3726927 255.16247125 -261.78842381 245.15116624 -272.9375 234.75 C-273.64245605 234.09354492 -274.34741211 233.43708984 -275.07373047 232.76074219 C-275.71842285 232.15391602 -276.36311523 231.54708984 -277.02734375 230.921875 C-277.88960571 230.11121582 -277.88960571 230.11121582 -278.76928711 229.28417969 C-280 228 -280 228 -280 227 C-278.93007812 226.96261719 -277.86015625 226.92523437 -276.7578125 226.88671875 C-244.27407554 225.5749034 -211.1427235 220.69167305 -181 208 C-179.57317031 207.41604654 -178.14606049 206.83277729 -176.71875 206.25 C-133.82765857 188.6169468 -94.36816936 162.38551908 -64 127 C-62.93458984 125.76636719 -62.93458984 125.76636719 -61.84765625 124.5078125 C-44.553382 103.92981529 -30.94204095 81.01275702 -19 57 C-18.49992432 56.00516602 -18.49992432 56.00516602 -17.98974609 54.99023438 C-9.49694167 37.83250469 -4.42509771 18.54448463 0 0 Z " fill="#FEFEFE" transform="translate(2091,850)"/>
<path d="M0 0 C0.67309204 0.00337372 1.34618408 0.00674744 2.03967285 0.01022339 C36.67760888 0.26032602 68.34503979 13.90753979 92.875 38.4375 C118.0996316 66.39836283 129.10935282 98.8221471 128.05419922 136.17773438 C127.63328803 143.83441862 125.98128788 151.08728161 123.875 158.4375 C123.56151611 159.56526855 123.56151611 159.56526855 123.24169922 160.71582031 C117.32981931 181.50261005 106.68549322 198.75580129 91.875 214.4375 C91.13894531 215.24960937 90.40289063 216.06171875 89.64453125 216.8984375 C69.6199855 238.1640355 38.58291856 251.83885535 9.5390625 252.71875 C-3.84362881 252.99244368 -17.1539489 253.12651453 -30.125 249.4375 C-31.3521875 249.0971875 -32.579375 248.756875 -33.84375 248.40625 C-66.08849725 238.54628597 -94.00504414 216.0750215 -110.20019531 186.47216797 C-119.57506832 168.67895332 -124.22821195 150.4812953 -125.125 130.4375 C-125.16351074 129.64037598 -125.20202148 128.84325195 -125.24169922 128.02197266 C-126.66829902 93.91843025 -112.36162894 62.68402752 -89.55834961 37.87451172 C-73.29562738 20.85492915 -51.83684697 9.08702454 -29.125 3.4375 C-28.06627686 3.1696167 -27.00755371 2.9017334 -25.91674805 2.62573242 C-17.19703033 0.57804285 -8.94277685 -0.07132207 0 0 Z " fill="#FEFEFE" transform="translate(1806.125,659.5625)"/>
<path d="M0 0 C1.10784038 0.94106907 2.21445812 1.88357754 3.3205719 2.82667542 C4.24514364 3.61372785 4.24514364 3.61372785 5.18839359 4.41668034 C7.79456575 6.6944398 10.22083978 9.12760718 12.65234375 11.58984375 C13.15617081 12.09745743 13.65999786 12.60507111 14.17909241 13.12806702 C16.29900221 15.26406052 18.4128161 17.40604702 20.52709961 19.54760742 C26.50139611 25.59204861 32.50373484 31.50989039 39 37 C40.22685828 38.06848055 41.45212449 39.13879196 42.67578125 40.2109375 C50.01438777 46.60397557 57.38823335 52.93208332 65 59 C65.94818604 59.75917725 65.94818604 59.75917725 66.91552734 60.53369141 C77.4727798 68.96129545 88.29425595 76.84300438 99.52734375 84.34375 C102.05846559 86.03916179 104.57675771 87.75244475 107.09375 89.46875 C161.74250343 126.56431561 222.39550192 153.58583608 286 171 C284.84718448 174.45844655 284.31188391 174.71086748 281.30078125 176.49609375 C280.12310181 177.20088867 280.12310181 177.20088867 278.92163086 177.91992188 C278.06061768 178.42072266 277.19960449 178.92152344 276.3125 179.4375 C275.41474854 179.96537109 274.51699707 180.49324219 273.59204102 181.03710938 C270.73593385 182.70550147 267.869746 184.35519322 265 186 C264.11989258 186.50805176 263.23978516 187.01610352 262.33300781 187.53955078 C193.95206677 226.777247 112.69572666 243.78953614 34.3125 235.1875 C33.17690643 235.06347809 33.17690643 235.06347809 32.01837158 234.93695068 C23.95617302 234.0352299 15.9593548 232.89622666 7.98046875 231.42578125 C6.94833 231.23655342 6.94833 231.23655342 5.89533997 231.04350281 C1.12670953 230.12670953 1.12670953 230.12670953 0 229 C-0.09797685 226.05433166 -0.12991709 223.13210235 -0.12025452 220.1860199 C-0.12110894 219.25003198 -0.12196337 218.31404407 -0.12284368 217.34969288 C-0.12450135 214.18810635 -0.11897245 211.02657194 -0.11352539 207.86499023 C-0.11324355 205.6087138 -0.11340118 203.35243727 -0.1139679 201.09616089 C-0.11425601 194.94971395 -0.10835704 188.80328633 -0.10139394 182.6568439 C-0.0951627 176.24128742 -0.09455678 169.82573055 -0.09336853 163.41017151 C-0.09060882 152.63517863 -0.08435328 141.86019424 -0.07543945 131.08520508 C-0.06626607 119.98494503 -0.05918487 108.8846869 -0.05493164 97.78442383 C-0.05453756 96.75878493 -0.05453756 96.75878493 -0.05413551 95.71242606 C-0.05283051 92.28234439 -0.05156679 88.8522627 -0.05032361 85.42218101 C-0.03995011 56.94811576 -0.0222569 28.47405826 0 0 Z " fill="#FDFDFD" transform="translate(1680,1180)"/>
<path d="M0 0 C119.60408163 0 119.60408163 0 149 26 C149.91652344 26.79277344 149.91652344 26.79277344 150.8515625 27.6015625 C164.57653136 40.32379391 172.04222068 58.0868282 176 76 C176.26490234 77.11012451 176.26490234 77.11012451 176.53515625 78.24267578 C182.30960057 104.01628929 177.6077095 134.18142361 163.796875 156.71875 C161.69929894 159.94802223 159.39891058 162.98693534 157 166 C155.93652344 167.33611328 155.93652344 167.33611328 154.8515625 168.69921875 C137.53034787 189.11574069 113.52117541 196.49626316 88 201 C58.96 201 29.92 201 0 201 C0 134.67 0 68.34 0 0 Z " fill="#FDFDFD" transform="translate(1380,1793)"/>
<path d="M0 0 C98.71663244 0 98.71663244 0 111.75 6.5 C112.44899414 6.83966797 113.14798828 7.17933594 113.86816406 7.52929688 C127.01678061 14.28731234 135.21262107 24.42661468 140.203125 38.19140625 C144.93435442 54.86667073 142.50346275 72.25394634 134.51953125 87.34765625 C128.94957289 97.07002572 119.20635135 103.67066654 109 108 C108.3090625 108.29777344 107.618125 108.59554688 106.90625 108.90234375 C103.06084324 110.45915955 100.19820058 111.14501556 96 111 C96.46148438 111.92296875 96.92296875 112.8459375 97.3984375 113.796875 C97.70765137 114.4153833 98.01686523 115.0338916 98.33544922 115.67114258 C99.04254691 117.0851719 99.74991381 118.49906663 100.45751953 119.9128418 C102.44662647 123.88806388 104.43081509 127.86562058 106.40625 131.84765625 C110.39682001 139.88054946 114.42953906 147.88444122 118.625 155.8125 C120.41787689 159.20769574 122.20930076 162.60365522 124 166 C124.31743164 166.60138794 124.63486328 167.20277588 124.96191406 167.8223877 C127.15637929 171.98191086 129.34088138 176.14648018 131.51580811 180.31625366 C132.25212832 181.72441088 132.99140468 183.13102649 133.73370361 184.53604126 C134.78069089 186.51880396 135.817202 188.50672156 136.8515625 190.49609375 C137.45822754 191.65294678 138.06489258 192.8097998 138.68994141 194.00170898 C140 197 140 197 140 201 C134.72 201 129.44 201 124 201 C123.21520264 199.4679895 123.21520264 199.4679895 122.41455078 197.9050293 C111.18053724 175.90151037 111.18053724 175.90151037 99.75 154 C95.78111554 146.49604772 91.8380688 138.97890153 87.92150879 131.44750977 C87.22792465 130.11535575 86.53287301 128.78396468 85.83630371 127.45336914 C84.86355097 125.59460147 83.89601062 123.73321022 82.9296875 121.87109375 C82.08253174 120.24578735 82.08253174 120.24578735 81.21826172 118.58764648 C80 116 80 116 80 114 C59.21 114 38.42 114 17 114 C17 142.71 17 171.42 17 201 C11.39 201 5.78 201 0 201 C0 134.67 0 68.34 0 0 Z " fill="#060606" transform="translate(2203,1793)"/>
<path d="M0 0 C104.52150538 0 104.52150538 0 123 14 C124.03125 14.7425 125.0625 15.485 126.125 16.25 C132.82964824 22.66314179 137.16613437 30.21359249 140 39 C140.22558594 39.68191406 140.45117188 40.36382813 140.68359375 41.06640625 C144.77700098 55.94382425 142.09120585 73.12791796 134.75 86.5 C126.85934267 98.79281352 115.17354886 106.77855321 101.0859375 110.625 C99 111 99 111 95 111 C105.14280247 130.61912568 105.14280247 130.61912568 115.3034668 150.22900391 C116.43569133 152.41198626 117.56736341 154.59525523 118.69848633 156.77880859 C121.49503696 162.17655236 124.29662766 167.57154248 127.11209106 172.95944214 C128.50945721 175.63498437 129.90351008 178.31224537 131.29711914 180.98974609 C131.96843377 182.27749509 132.64126043 183.5644571 133.31567383 184.85058594 C134.25207002 186.63665327 135.18280038 188.42568761 136.11328125 190.21484375 C136.64735596 191.23698975 137.18143066 192.25913574 137.73168945 193.31225586 C138.80467844 195.58608372 139.62525413 197.52055607 140 200 C139 201 139 201 135.62109375 201.09765625 C134.22652923 201.09098369 132.83198257 201.07902532 131.4375 201.0625 C130.37112305 201.05573242 130.37112305 201.05573242 129.28320312 201.04882812 C127.52209987 201.03700864 125.76103964 201.01907263 124 201 C114.93292037 184.83611333 106.49590024 168.36552295 98.09521484 151.84838867 C97.18591268 150.0616657 96.27657061 148.27496303 95.3671875 146.48828125 C94.92474701 145.61779648 94.48230652 144.74731171 94.02645874 143.85044861 C91.76226827 139.40784303 89.47057888 134.98242226 87.12988281 130.57958984 C86.66856964 129.71142136 86.20725647 128.84325287 85.73196411 127.94877625 C84.85541953 126.30450915 83.97499741 124.66230118 83.09005737 123.02253723 C82.69827301 122.28831039 82.30648865 121.55408356 81.90283203 120.79760742 C81.55834015 120.15820724 81.21384827 119.51880707 80.85891724 118.86003113 C80 117 80 117 79 113 C58.21 113 37.42 113 16 113 C16 142.04 16 171.08 16 201 C10.72 201 5.44 201 0 201 C0 134.67 0 68.34 0 0 Z " fill="#030303" transform="translate(839,1793)"/>
<path d="M0 0 C103.7761194 0 103.7761194 0 123.25390625 18.09375 C134.83486134 30.22408626 138.5481649 45.72125506 138.4921875 62.09814453 C138.07787166 74.27644088 134.2352302 86.16083091 127 96 C126.55011719 96.63035156 126.10023438 97.26070312 125.63671875 97.91015625 C115.25435058 111.21713517 98.11209561 116.76678428 82 119 C76.7676362 119.35744107 71.55755001 119.3552362 66.31640625 119.29296875 C65.05372925 119.28994751 63.79105225 119.28692627 62.4901123 119.28381348 C57.84748974 119.26831247 53.2049852 119.22643142 48.5625 119.1875 C32.9390625 119.0946875 32.9390625 119.0946875 17 119 C17 146.06 17 173.12 17 201 C11.39 201 5.78 201 0 201 C0 134.67 0 68.34 0 0 Z " fill="#FCFCFC" transform="translate(1943,1793)"/>
<path d="M0 0 C0.90492188 0.44085937 1.80984375 0.88171875 2.7421875 1.3359375 C26.20418534 13.36602705 43.13708626 35.70324878 51.3125 60.5 C59.77338331 90.85750407 55.41646525 121.28789998 40.12890625 148.49609375 C36.99235017 153.82114673 33.16194776 158.44699674 29 163 C28.25234375 163.84046875 27.5046875 164.6809375 26.734375 165.546875 C10.13058582 183.25025287 -15.09876336 194.89721297 -39.35473633 196.17700195 C-70.86778649 196.73234673 -70.86778649 196.73234673 -85 192 C-85.64775391 191.78569336 -86.29550781 191.57138672 -86.96289062 191.35058594 C-113.69371202 182.19601251 -132.87679227 164.7474943 -146 140 C-146.39832031 139.31808594 -146.79664062 138.63617187 -147.20703125 137.93359375 C-154.51273492 124.92303781 -156.11484338 109.60173129 -157 95 C-157.0721875 93.99582031 -157.144375 92.99164062 -157.21875 91.95703125 C-158.10166507 68.22868878 -148.84781005 44.22618366 -134 26 C-133.33613281 25.17242188 -132.67226562 24.34484375 -131.98828125 23.4921875 C-99.73158926 -14.54805185 -43.47849859 -21.67586956 0 0 Z M-118.8125 31.8125 C-135.11392847 50.9502576 -142.77271017 75.05074573 -141 100 C-140.34889313 105.40685239 -139.21904693 110.69657621 -138 116 C-137.80664062 116.88042969 -137.61328125 117.76085938 -137.4140625 118.66796875 C-134.24971437 130.93495468 -127.53698517 142.74265881 -119 152 C-118.18917969 152.90234375 -117.37835937 153.8046875 -116.54296875 154.734375 C-100.27971836 171.97389664 -78.7296005 180.77318488 -55.16796875 182.23828125 C-29.59845426 182.71504354 -6.01832306 174.34282938 13 157 C19.674943 150.52805168 24.46199387 143.07843332 29 135 C29.474375 134.16210938 29.94875 133.32421875 30.4375 132.4609375 C40.97297777 111.71921564 42.03330622 86.13347703 35.3125 64.125 C26.56743178 39.49734465 10.64345016 21.79757938 -12.75 10.625 C-18.07397546 8.29173231 -23.35355365 6.37740452 -29 5 C-29.76699219 4.79503906 -30.53398437 4.59007812 -31.32421875 4.37890625 C-62.81336518 -2.78895283 -96.85161526 8.56646882 -118.8125 31.8125 Z " fill="#030303" transform="translate(2616,1801)"/>
<path d="M0 0 C119.60408163 0 119.60408163 0 149 26 C149.91652344 26.79277344 149.91652344 26.79277344 150.8515625 27.6015625 C164.57653136 40.32379391 172.04222068 58.0868282 176 76 C176.26490234 77.11012451 176.26490234 77.11012451 176.53515625 78.24267578 C182.30960057 104.01628929 177.6077095 134.18142361 163.796875 156.71875 C161.69929894 159.94802223 159.39891058 162.98693534 157 166 C155.93652344 167.33611328 155.93652344 167.33611328 154.8515625 168.69921875 C137.53034787 189.11574069 113.52117541 196.49626316 88 201 C58.96 201 29.92 201 0 201 C0 134.67 0 68.34 0 0 Z M16 14 C16 71.09 16 128.18 16 187 C65.66966509 190.0322172 65.66966509 190.0322172 115 179 C116.61455078 178.24396484 116.61455078 178.24396484 118.26171875 177.47265625 C137.3419701 167.87608013 150.37144653 152.44085072 157.28515625 132.24609375 C164.40360052 108.1862624 163.93746143 79.19115472 152.27319336 56.68188477 C141.64417324 37.29841276 125.97400851 24.92719547 105 18 C76.01054959 11.55789991 45.6966141 14 16 14 Z " fill="#050505" transform="translate(1380,1793)"/>
<path d="M0 0 C11.50875 -0.12375 23.0175 -0.2475 34.875 -0.375 C38.47003418 -0.42962402 42.06506836 -0.48424805 45.76904297 -0.54052734 C84.03468191 -0.88040054 84.03468191 -0.88040054 97.953125 11.7421875 C106.90696964 21.61875659 110.71006826 32.39663154 110.34765625 45.6640625 C109.05130836 58.10317595 103.86276772 68.50955283 94.19140625 76.4375 C81.94514858 85.16923452 68.96013958 86.44835839 54.39453125 86.29296875 C52.99589396 86.28854606 51.59725167 86.28549284 50.1986084 86.28381348 C45.06982882 86.26822192 39.94115622 86.2263387 34.8125 86.1875 C23.324375 86.125625 11.83625 86.06375 0 86 C0 57.62 0 29.24 0 0 Z " fill="#FCFCFC" transform="translate(2219,1807)"/>
<path d="M0 0 C11.3025 -0.061875 22.605 -0.12375 34.25 -0.1875 C39.56786621 -0.22846802 39.56786621 -0.22846802 44.99316406 -0.27026367 C49.38232422 -0.28381348 49.38232422 -0.28381348 51.44866943 -0.28633118 C52.86650431 -0.29088424 54.28432891 -0.30132143 55.7020874 -0.31672668 C71.17698807 -0.47620771 86.48204992 1.74950763 98.375 12.625 C107.81766834 22.85620014 109.49410299 34.20886422 109.27734375 47.47265625 C108.85856826 57.54201923 104.22250661 66.94069672 97 73.9375 C84.00649361 84.70354815 70.07302198 86.31186475 53.80859375 86.1953125 C52.42777671 86.19236584 51.04695742 86.19032924 49.6661377 86.18920898 C44.58989069 86.17879386 39.51369176 86.15087149 34.4375 86.125 C23.073125 86.08375 11.70875 86.0425 0 86 C0 57.62 0 29.24 0 0 Z " fill="#FCFCFC" transform="translate(855,1807)"/>
<path d="M0 0 C43.23 0 86.46 0 131 0 C131 4.62 131 9.24 131 14 C93.05 14 55.1 14 16 14 C16 39.74 16 65.48 16 92 C46.03 92 76.06 92 107 92 C107 96.62 107 101.24 107 106 C62.45 106.495 62.45 106.495 17 107 C16.67 133.4 16.34 159.8 16 187 C53.95 187 91.9 187 131 187 C131 191.62 131 196.24 131 201 C87.77 201 44.54 201 0 201 C0 134.67 0 68.34 0 0 Z " fill="#050505" transform="translate(1686,1793)"/>
<path d="M0 0 C103.7761194 0 103.7761194 0 123.25390625 18.09375 C134.83486134 30.22408626 138.5481649 45.72125506 138.4921875 62.09814453 C138.07787166 74.27644088 134.2352302 86.16083091 127 96 C126.55011719 96.63035156 126.10023438 97.26070312 125.63671875 97.91015625 C115.25435058 111.21713517 98.11209561 116.76678428 82 119 C76.7676362 119.35744107 71.55755001 119.3552362 66.31640625 119.29296875 C65.05372925 119.28994751 63.79105225 119.28692627 62.4901123 119.28381348 C57.84748974 119.26831247 53.2049852 119.22643142 48.5625 119.1875 C32.9390625 119.0946875 32.9390625 119.0946875 17 119 C17 146.06 17 173.12 17 201 C11.39 201 5.78 201 0 201 C0 134.67 0 68.34 0 0 Z M16 14 C16 44.03 16 74.06 16 105 C32.149375 105.12375 32.149375 105.12375 48.625 105.25 C51.99541504 105.28641602 55.36583008 105.32283203 58.83837891 105.36035156 C61.55110032 105.3720491 64.26382883 105.38223839 66.9765625 105.390625 C67.6606015 105.40107849 68.3446405 105.41153198 69.04940796 105.42230225 C83.72280934 105.63487655 98.14465342 103.28651355 109.25 92.89453125 C120.30539388 81.08720801 121.58316979 69.17231527 121.3125 53.5703125 C121.06822149 47.43281488 120.06006442 42.37169203 117 37 C116.55269531 36.19691406 116.10539062 35.39382813 115.64453125 34.56640625 C109.01819614 23.7475374 99.07244439 18.1788659 87.10328674 14.64649963 C80.86227781 13.34632652 74.4932292 13.63649732 68.1484375 13.70703125 C66.80835343 13.71145313 65.46826414 13.71450686 64.12817383 13.71618652 C59.21036917 13.73178745 54.29267611 13.77367082 49.375 13.8125 C32.854375 13.9053125 32.854375 13.9053125 16 14 Z " fill="#070707" transform="translate(1943,1793)"/>
<path d="M0 0 C6.1272918 -1.65947486 12.04304698 -2.74463894 18 0 C24.24189114 6.24189114 28.05309315 14.74874249 32.12255859 22.51171875 C34.83964438 27.56005707 37.92623964 32.33018717 41.0625 37.125 C42.21325434 38.92039213 43.36168246 40.71727732 44.5078125 42.515625 C45.07918945 43.41087891 45.65056641 44.30613281 46.23925781 45.22851562 C51.2360202 53.0936358 56.14860198 61.01208146 61.078125 68.91943359 C63.04953505 72.07939955 65.02425269 75.23727552 67 78.39453125 C73.36985352 88.5740833 79.73662068 98.75447216 86 109 C89.71477692 104.66609359 92.50024392 99.96677657 95.375 95.0625 C99.70991152 87.7505203 104.16008447 80.52956178 108.75 73.375 C113.92423532 65.30420039 118.99267797 57.17539182 124 49 C129.64611834 39.7876611 135.30969653 30.58689002 141.20751953 21.53271484 C143.7630552 17.60230538 146.20627084 13.71678557 148.30859375 9.5234375 C150.19552567 5.88391548 151.92618923 2.79861376 155 0 C160.2719857 -1.54314999 165.65823343 -0.82584367 171 0 C171.33 0.66 171.66 1.32 172 2 C171.1706543 3.71728516 171.1706543 3.71728516 169.82421875 5.7890625 C169.33115234 6.55734375 168.83808594 7.325625 168.33007812 8.1171875 C167.78802734 8.94476562 167.24597656 9.77234375 166.6875 10.625 C165.5660028 12.36692781 164.44491486 14.10911918 163.32421875 15.8515625 C162.76009277 16.72329102 162.1959668 17.59501953 161.61474609 18.49316406 C159.37327905 21.97296201 157.18399383 25.48396305 155 29 C149.87515399 37.21811928 144.70014874 45.40433334 139.5234375 53.58984375 C138.03510529 55.94446164 136.5484756 58.3001443 135.0625 60.65625 C129.14077699 70.0439865 123.19391688 79.41534789 117.23120117 88.77709961 C113.28863946 94.96926962 109.35722965 101.16835154 105.4375 107.375 C104.96119141 108.12910156 104.48488281 108.88320312 103.99414062 109.66015625 C102.66115938 111.77244801 101.32874413 113.8850393 100 116 C99.58701157 116.46883606 99.17402313 116.93767212 98.7485199 117.42071533 C93.23227935 124.42806283 94.27008172 133.16506038 94.29296875 141.625 C94.27984008 143.3399429 94.26453228 145.05487037 94.24714661 146.76977539 C94.20742008 151.26113093 94.19711418 155.75208082 94.19311523 160.24359131 C94.1837604 164.83569549 94.14633223 169.42756363 94.11132812 174.01953125 C94.04687781 183.01306574 94.01613257 192.00624892 94 201 C88.72 201 83.44 201 78 201 C78.04302246 198.7523584 78.08604492 196.5047168 78.13037109 194.18896484 C78.26372905 186.66941885 78.31735456 179.15071748 78.33421898 171.63005638 C78.34677134 167.08020998 78.38418209 162.53371054 78.48339844 157.98486328 C78.92811267 136.69770276 79.14506276 120.05618304 64.68060303 103.01245117 C62.42554851 100.31211859 60.62761522 97.47672803 58.7734375 94.48828125 C57.64157246 92.7623991 56.50879254 91.03711652 55.375 89.3125 C49.33656076 80.0882608 43.41833851 70.79494447 37.55078125 61.46142578 C30.53681536 50.32874251 23.46326693 39.23281184 16.3125 28.1875 C15.66112061 27.17961426 15.66112061 27.17961426 14.99658203 26.15136719 C12.64200073 22.51366643 10.26809995 18.88983422 7.875 15.27734375 C7.36283936 14.49915283 6.85067871 13.72096191 6.32299805 12.91918945 C5.33795845 11.42308195 4.34747953 9.93053733 3.35083008 8.44213867 C0 3.3375457 0 3.3375457 0 0 Z " fill="#040404" transform="translate(1086,1793)"/>
</svg>
