<svg width="24" height="24" viewBox="0 0 24 24" fill="none" xmlns="http://www.w3.org/2000/svg">
<rect width="24" height="24" rx="12" fill="#111111"/>
<path d="M15.6337 13.667C15.7003 13.117 15.7503 12.567 15.7503 12.0003C15.7503 11.4337 15.7003 10.8837 15.6337 10.3337H18.4503C18.5837 10.867 18.667 11.4253 18.667 12.0003C18.667 12.5753 18.5837 13.1337 18.4503 13.667M14.1587 18.3003C14.6587 17.3753 15.042 16.3753 15.3087 15.3337H17.767C16.9596 16.7239 15.6788 17.777 14.1587 18.3003ZM13.9503 13.667H10.0503C9.96699 13.117 9.91699 12.567 9.91699 12.0003C9.91699 11.4337 9.96699 10.8753 10.0503 10.3337H13.9503C14.0253 10.8753 14.0837 11.4337 14.0837 12.0003C14.0837 12.567 14.0253 13.117 13.9503 13.667ZM12.0003 18.6337C11.3087 17.6337 10.7503 16.5253 10.4087 15.3337H13.592C13.2503 16.5253 12.692 17.6337 12.0003 18.6337ZM8.66699 8.66699H6.23366C7.03253 7.27285 8.31254 6.21803 9.83366 5.70033C9.33366 6.62533 8.95866 7.62533 8.66699 8.66699ZM6.23366 15.3337H8.66699C8.95866 16.3753 9.33366 17.3753 9.83366 18.3003C8.31555 17.7772 7.03723 16.7238 6.23366 15.3337ZM5.55033 13.667C5.41699 13.1337 5.33366 12.5753 5.33366 12.0003C5.33366 11.4253 5.41699 10.867 5.55033 10.3337H8.36699C8.30033 10.8837 8.25033 11.4337 8.25033 12.0003C8.25033 12.567 8.30033 13.117 8.36699 13.667M12.0003 5.35866C12.692 6.35866 13.2503 7.47533 13.592 8.66699H10.4087C10.7503 7.47533 11.3087 6.35866 12.0003 5.35866ZM17.767 8.66699H15.3087C15.0474 7.635 14.6613 6.63875 14.1587 5.70033C15.692 6.22533 16.967 7.28366 17.767 8.66699ZM12.0003 3.66699C7.39199 3.66699 3.66699 7.41699 3.66699 12.0003C3.66699 14.2105 4.54497 16.3301 6.10777 17.8929C6.88159 18.6667 7.80025 19.2805 8.8113 19.6993C9.82234 20.1181 10.906 20.3337 12.0003 20.3337C14.2105 20.3337 16.3301 19.4557 17.8929 17.8929C19.4557 16.3301 20.3337 14.2105 20.3337 12.0003C20.3337 10.906 20.1181 9.82234 19.6993 8.8113C19.2805 7.80025 18.6667 6.88159 17.8929 6.10777C17.1191 5.33395 16.2004 4.72012 15.1894 4.30133C14.1783 3.88254 13.0947 3.66699 12.0003 3.66699Z" fill="white"/>
</svg>
