<svg width="31" height="30" viewBox="0 0 31 30" fill="none" xmlns="http://www.w3.org/2000/svg">
<path d="M25.2388 18.6629C22.6638 21.2254 18.9763 22.0129 15.7388 21.0004L9.85128 26.8754C9.42628 27.3129 8.58878 27.5754 7.98878 27.4879L5.26378 27.1129C4.36378 26.9879 3.52628 26.1379 3.38878 25.2379L3.01378 22.5129C2.92628 21.9129 3.21378 21.0754 3.62628 20.6504L9.50128 14.7754C8.50128 11.5254 9.27628 7.83789 11.8513 5.27539C15.5388 1.58789 21.5263 1.58789 25.2263 5.27539C28.9263 8.96289 28.9263 14.9754 25.2388 18.6629Z" stroke="#0B6703" stroke-width="3" stroke-miterlimit="10" stroke-linecap="round" stroke-linejoin="round"/>
<path d="M9.11328 21.8604L11.9883 24.7354" stroke="#0B6703" stroke-width="3" stroke-miterlimit="10" stroke-linecap="round" stroke-linejoin="round"/>
<path d="M18.625 13.75C19.6605 13.75 20.5 12.9105 20.5 11.875C20.5 10.8395 19.6605 10 18.625 10C17.5895 10 16.75 10.8395 16.75 11.875C16.75 12.9105 17.5895 13.75 18.625 13.75Z" stroke="#0B6703" stroke-width="3" stroke-linecap="round" stroke-linejoin="round"/>
</svg>
