<svg width="18" height="18" viewBox="0 0 18 18" fill="none" xmlns="http://www.w3.org/2000/svg">
<path d="M7.86663 1.67248L4.12414 3.07498C3.26164 3.39748 2.55664 4.41747 2.55664 5.33997V10.9125C2.55664 11.7975 3.14165 12.96 3.85415 13.4925L7.07914 15.9C8.13664 16.695 9.87663 16.695 10.9341 15.9L14.1591 13.4925C14.8716 12.96 15.4566 11.7975 15.4566 10.9125V5.33997C15.4566 4.41747 14.7516 3.39748 13.8891 3.07498L10.1466 1.67248C9.50914 1.43998 8.48913 1.43998 7.86663 1.67248Z" stroke="#292D32" stroke-width="1.5" stroke-linecap="round" stroke-linejoin="round"/>
<path d="M8.99977 8.19C8.96977 8.19 8.93227 8.19 8.90227 8.19C8.19727 8.1675 7.63477 7.5825 7.63477 6.87C7.63477 6.1425 8.22727 5.54999 8.95477 5.54999C9.68227 5.54999 10.2748 6.1425 10.2748 6.87C10.2673 7.59 9.70477 8.1675 8.99977 8.19Z" stroke="#292D32" stroke-width="1.5" stroke-linecap="round" stroke-linejoin="round"/>
<path d="M7.5068 10.29C6.7868 10.77 6.7868 11.5575 7.5068 12.0375C8.3243 12.585 9.6668 12.585 10.4843 12.0375C11.2043 11.5575 11.2043 10.77 10.4843 10.29C9.6743 9.74252 8.3318 9.74252 7.5068 10.29Z" stroke="#292D32" stroke-width="1.5" stroke-linecap="round" stroke-linejoin="round"/>
</svg>
