<svg width="40" height="40" viewBox="0 0 40 40" fill="none" xmlns="http://www.w3.org/2000/svg">
<circle cx="20" cy="20" r="20" fill="black" fill-opacity="0.1"/>
<path d="M26.41 16.7841C28.3926 16.7841 29.9998 15.2655 29.9998 13.3921C29.9998 11.5187 28.3926 10 26.41 10C24.4275 10 22.8203 11.5187 22.8203 13.3921C22.8203 15.2655 24.4275 16.7841 26.41 16.7841Z" stroke="#292D32" stroke-width="1.5" stroke-miterlimit="10"/>
<path d="M13.5897 24.4951C15.5723 24.4951 17.1795 22.9764 17.1795 21.103C17.1795 19.2296 15.5723 17.7109 13.5897 17.7109C11.6072 17.7109 10 19.2296 10 21.103C10 22.9764 11.6072 24.4951 13.5897 24.4951Z" stroke="#292D32" stroke-width="1.5" stroke-miterlimit="10"/>
<path d="M26.41 30.0029C28.3926 30.0029 29.9998 28.4842 29.9998 26.6108C29.9998 24.7374 28.3926 23.2188 26.41 23.2188C24.4275 23.2188 22.8203 24.7374 22.8203 26.6108C22.8203 28.4842 24.4275 30.0029 26.41 30.0029Z" stroke="#292D32" stroke-width="1.5" stroke-miterlimit="10"/>
<line y1="-0.5" x2="8.26491" y2="-0.5" transform="matrix(0.846108 -0.533011 0.576484 0.817109 16.9922 19.9141)" stroke="#292D32"/>
<line y1="-0.5" x2="7.3317" y2="-0.5" transform="matrix(0.953805 0.300427 -0.332667 0.943044 16.9922 23.2188)" stroke="#292D32"/>
</svg>
