<svg width="41" height="41" viewBox="0 0 41 41" fill="none" xmlns="http://www.w3.org/2000/svg">
<path d="M10.2493 25.625H6.83263C4.94566 25.625 3.41597 24.0953 3.41597 22.2083V10.25C3.41597 8.36303 4.94566 6.83333 6.83263 6.83333H10.2493C12.1363 6.83333 13.666 8.36303 13.666 10.25V22.2083C13.666 24.0953 12.1363 25.625 10.2493 25.625Z" stroke="#28303F" stroke-width="1.5" stroke-linecap="round" stroke-linejoin="round"/>
<path d="M27.1223 5.125H20.8599C19.5109 5.125 18.192 5.52433 17.0695 6.27266L14.4267 8.03452C13.9514 8.35136 13.666 8.88475 13.666 9.45594V23.463C13.666 23.7603 13.7436 24.0524 13.8911 24.3106L20.4993 35.875H22.7692C26.1803 35.875 28.2149 32.0733 26.3227 29.2351L23.916 25.625H33.2066C35.4294 25.625 37.0604 23.5361 36.5213 21.3797L33.7516 10.301C32.9911 7.25903 30.2579 5.125 27.1223 5.125Z" stroke="#28303F" stroke-width="1.5" stroke-linecap="round" stroke-linejoin="round"/>
</svg>
