<svg width="38" height="35" viewBox="0 0 38 35" fill="none" xmlns="http://www.w3.org/2000/svg">
<path d="M9.2493 12.375H5.83263C3.94566 12.375 2.41597 13.9047 2.41597 15.7917V27.75C2.41597 29.637 3.94566 31.1667 5.83263 31.1667H9.2493C11.1363 31.1667 12.666 29.637 12.666 27.75V15.7917C12.666 13.9047 11.1363 12.375 9.2493 12.375Z" stroke="#28303F" stroke-width="3" stroke-linecap="round" stroke-linejoin="round"/>
<path d="M26.1223 32.875H19.8599C18.5109 32.875 17.192 32.4757 16.0695 31.7273L13.4267 29.9655C12.9514 29.6486 12.666 29.1152 12.666 28.5441V14.537C12.666 14.2397 12.7436 13.9476 12.8911 13.6894L19.4993 2.125H21.7692C25.1803 2.125 27.2149 5.92666 25.3227 8.76486L22.916 12.375H32.2066C34.4294 12.375 36.0604 14.4639 35.5213 16.6203L32.7516 27.699C31.9911 30.741 29.2579 32.875 26.1223 32.875Z" stroke="#28303F" stroke-width="3" stroke-linecap="round" stroke-linejoin="round"/>
</svg>
