<svg width="15" height="16" viewBox="0 0 15 16" fill="none" xmlns="http://www.w3.org/2000/svg">
<path id="&#194;&#174;" d="M0 7.98241C0 6.54241 0.312 5.2704 0.936 4.1664C1.56 3.0624 2.424 2.18641 3.528 1.53841C4.656 0.890406 5.94 0.566406 7.38 0.566406C8.796 0.566406 10.056 0.890406 11.16 1.53841C12.288 2.18641 13.164 3.0624 13.788 4.1664C14.412 5.2704 14.724 6.54241 14.724 7.98241C14.724 9.42241 14.412 10.7064 13.788 11.8344C13.164 12.9384 12.288 13.8144 11.16 14.4624C10.056 15.1104 8.796 15.4344 7.38 15.4344C5.94 15.4344 4.656 15.1104 3.528 14.4624C2.424 13.8144 1.56 12.9384 0.936 11.8344C0.312 10.7064 0 9.42241 0 7.98241ZM1.62 7.98241C1.62 9.13441 1.848 10.1544 2.304 11.0424C2.784 11.9304 3.456 12.6264 4.32 13.1304C5.184 13.6344 6.204 13.8864 7.38 13.8864C8.532 13.8864 9.54 13.6344 10.404 13.1304C11.292 12.6264 11.964 11.9304 12.42 11.0424C12.9 10.1544 13.14 9.13441 13.14 7.98241C13.14 6.80641 12.9 5.78641 12.42 4.92241C11.964 4.03441 11.292 3.33841 10.404 2.8344C9.54 2.33041 8.532 2.07841 7.38 2.07841C6.204 2.07841 5.184 2.33041 4.32 2.8344C3.456 3.33841 2.784 4.03441 2.304 4.92241C1.848 5.78641 1.62 6.80641 1.62 7.98241ZM4.392 4.02241V11.7624H6.408V8.99041H7.92C8.736 8.99041 9.384 8.76241 9.864 8.30641C10.368 7.82641 10.62 7.22641 10.62 6.5064C10.62 5.76241 10.368 5.16241 9.864 4.70641C9.384 4.25041 8.736 4.02241 7.92 4.02241H4.392ZM8.568 11.7624H11.016L8.676 8.19841L6.444 8.23441L8.568 11.7624ZM7.812 5.85841C8.028 5.85841 8.22 5.91841 8.388 6.03841C8.556 6.13441 8.64 6.31441 8.64 6.57841C8.64 6.81841 8.556 6.99841 8.388 7.11841C8.22 7.23841 8.028 7.29841 7.812 7.29841H6.408V5.85841H7.812Z" fill="#212121"/>
</svg>
